<?xml version="1.0" encoding="UTF-8"?>
<svg id="_레이어_1" data-name="레이어_1" xmlns="http://www.w3.org/2000/svg" width="14.11mm" height="14.11mm" version="1.1" xmlns:xlink="http://www.w3.org/1999/xlink" viewBox="0 0 40 40">
  <!-- Generator: Adobe Illustrator 29.6.1, SVG Export Plug-In . SVG Version: 2.1.1 Build 9)  -->
  <defs>
    <linearGradient id="linear-gradient" x1="0" y1="20.27" x2="36.95" y2="20.27" gradientUnits="userSpaceOnUse">
      <stop offset="0" stop-color="#64cbee"/>
      <stop offset="1" stop-color="#4263ad"/>
    </linearGradient>
  </defs>
  <circle cx="36.73" cy="16.91" r=".98" fill="#2d55a5"/>
  <circle cx="38.04" cy="13.31" r="1.96" fill="#1a478c"/>
  <path d="M36.37,19.22c-.08-.1-.19-.19-.3-.26-1.24-.79-2.64-.43-3.33.76-.23.34-.3.78-.29,1.24.01.55.03,1.11.03,1.66,0,.52-.12.97-.35,1.35-.2.26-.46.49-.78.68-.38.22-.77.43-1.15.64l-2.35-13.48c-.1-.6-.62-1.04-1.23-1.04h-3.85c-.92,0-1.71.66-1.87,1.57l-2.46,14.1-3.04-15.12-3.14,4.71,1.16,5.39c-.96-1.62-2.84-2.38-4.87-2.88-3.09-.75-3.8-1.33-3.8-2.44,0-.91.78-1.43,2.14-1.43h3.67c.31,0,.6-.16.78-.41l2.32-3.49h-6.77c-3.8,0-6.24,2.21-6.24,5.46,0,2.47,1.27,4.39,4.39,5.23,3.25.88,4.97,1.01,4.97,2.67,0,1.17-.88,1.72-2.44,1.72H1.3l-1.3,3.9h7.9c3.66,0,6-2.24,6.18-5.3l1.13,5.22s.05.08.09.08h4.09c1.35,0,2.5-.97,2.73-2.3l2.3-13.5,2.33,13.66c.21,1.24,1.28,2.14,2.54,2.14h1.23v-.02c.91.13,1.78-.3,2.28-1.16.23-.34.3-.78.29-1.24-.01-.55-.03-1.11-.03-1.66,0-.52.12-.97.35-1.35.2-.26.46-.49.78-.68.59-.34,1.21-.64,1.79-1.02,1.09-.7,1.32-2.27.38-3.41Z" fill="url(#linear-gradient)"/>
</svg>