<svg width="182" height="40" viewBox="0 0 182 40" fill="none" xmlns="http://www.w3.org/2000/svg">
<path d="M67.7514 17.037C67.7514 18.5432 67.4069 19.9259 66.7177 21.1852C66.0286 22.4198 64.9702 23.4198 63.5427 24.1852C62.1152 24.9506 60.3431 25.3333 58.2264 25.3333H54.3131V34.6667H48V8.66667H58.2264C60.2939 8.66667 62.0414 9.02469 63.4689 9.74074C64.8964 10.4568 65.967 11.4444 66.6808 12.7037C67.3946 13.963 67.7514 15.4074 67.7514 17.037ZM57.7465 20.2963C58.9525 20.2963 59.8509 20.0123 60.4416 19.4444C61.0323 18.8765 61.3276 18.0741 61.3276 17.037C61.3276 16 61.0323 15.1975 60.4416 14.6296C59.8509 14.0617 58.9525 13.7778 57.7465 13.7778H54.3131V20.2963H57.7465Z" fill="black"/>
<path d="M74.2131 11.8519C73.1055 11.8519 72.1948 11.5309 71.4811 10.8889C70.7919 10.2222 70.4474 9.40741 70.4474 8.44445C70.4474 7.45679 70.7919 6.64198 71.4811 6C72.1948 5.33333 73.1055 5 74.2131 5C75.296 5 76.182 5.33333 76.8712 6C77.5849 6.64198 77.9418 7.45679 77.9418 8.44445C77.9418 9.40741 77.5849 10.2222 76.8712 10.8889C76.182 11.5309 75.296 11.8519 74.2131 11.8519ZM77.3511 14V34.6667H71.0381V14H77.3511Z" fill="black"/>
<path d="M94.1093 34.6667L90.159 28.9259L86.8363 34.6667H80.0064L86.7994 24.1111L79.8218 14H86.9102L90.8604 19.7037L94.1831 14H101.013L94.1093 24.4074L101.198 34.6667H94.1093Z" fill="black"/>
<path d="M111.974 30.8889L117.733 14.2593H122.2L114.447 34.6667H109.426L101.71 14.2593H106.215L111.974 30.8889Z" fill="black"/>
<path d="M144.026 23.963C144.026 24.7284 143.976 25.4198 143.878 26.037H128.335C128.458 27.6667 129.061 28.9753 130.144 29.963C131.227 30.9506 132.556 31.4444 134.131 31.4444C136.396 31.4444 137.995 30.4938 138.931 28.5926H143.472C142.856 30.4691 141.737 32.0123 140.112 33.2222C138.512 34.4074 136.519 35 134.131 35C132.187 35 130.439 34.5679 128.889 33.7037C127.363 32.8148 126.157 31.5802 125.271 30C124.409 28.3951 123.979 26.5432 123.979 24.4444C123.979 22.3457 124.397 20.5062 125.234 18.9259C126.095 17.321 127.289 16.0864 128.815 15.2222C130.366 14.358 132.138 13.9259 134.131 13.9259C136.051 13.9259 137.762 14.3457 139.263 15.1852C140.764 16.0247 141.933 17.2099 142.77 18.7407C143.607 20.2469 144.026 21.9877 144.026 23.963ZM139.632 22.6296C139.608 21.0741 139.054 19.8272 137.971 18.8889C136.888 17.9506 135.547 17.4815 133.947 17.4815C132.495 17.4815 131.252 17.9506 130.218 18.8889C129.184 19.8025 128.569 21.0494 128.372 22.6296H139.632Z" fill="black"/>
<path d="M158.431 13.9259C160.03 13.9259 161.458 14.2593 162.713 14.9259C163.993 15.5926 164.99 16.5802 165.704 17.8889C166.417 19.1975 166.774 20.7778 166.774 22.6296V34.6667H162.602V23.2593C162.602 21.4321 162.147 20.037 161.236 19.0741C160.326 18.0864 159.083 17.5926 157.508 17.5926C155.933 17.5926 154.677 18.0864 153.742 19.0741C152.831 20.037 152.376 21.4321 152.376 23.2593V34.6667H148.167V14.2593H152.376V16.5926C153.065 15.7531 153.939 15.0988 154.997 14.6296C156.08 14.1605 157.225 13.9259 158.431 13.9259Z" fill="black"/>
<path d="M177.053 17.7037V29C177.053 29.7654 177.225 30.321 177.57 30.6667C177.939 30.9877 178.554 31.1481 179.416 31.1481H182V34.6667H178.677C176.782 34.6667 175.33 34.2222 174.321 33.3333C173.312 32.4444 172.807 31 172.807 29V17.7037H170.408V14.2593H172.807V9.18519H177.053V14.2593H182V17.7037H177.053Z" fill="black"/>
<path d="M3.47827 23.4783C5.39926 23.4783 6.95653 21.921 6.95653 20C6.95653 18.079 5.39926 16.5217 3.47827 16.5217C1.55727 16.5217 0 18.079 0 20C0 21.921 1.55727 23.4783 3.47827 23.4783Z" fill="#FFFF00"/>
<path d="M33.0435 6.95652C34.9645 6.95652 36.5218 5.39925 36.5218 3.47826C36.5218 1.55727 34.9645 0 33.0435 0C31.1225 0 29.5653 1.55727 29.5653 3.47826C29.5653 5.39925 31.1225 6.95652 33.0435 6.95652Z" fill="#FFFF00"/>
<path d="M33.0435 40C34.9645 40 36.5218 38.4427 36.5218 36.5217C36.5218 34.6007 34.9645 33.0435 33.0435 33.0435C31.1225 33.0435 29.5653 34.6007 29.5653 36.5217C29.5653 38.4427 31.1225 40 33.0435 40Z" fill="#FFFF00"/>
<path d="M13.9131 20C13.9117 18.6173 14.2112 17.2509 14.7908 15.9956C15.3705 14.7403 16.2163 13.6261 17.2696 12.7304L13.7913 6.66085C11.0311 8.64679 8.94855 11.4337 7.8261 14.6435C8.62467 15.2873 9.26891 16.1019 9.71152 17.0273C10.1541 17.9527 10.3839 18.9655 10.3839 19.9913C10.3839 21.0171 10.1541 22.0299 9.71152 22.9553C9.26891 23.8807 8.62467 24.6952 7.8261 25.3391C8.92676 28.546 10.9845 31.3383 13.7218 33.3391L17.2 27.2695C16.1594 26.3673 15.3267 25.2502 14.7593 23.9953C14.1918 22.7403 13.9031 21.3772 13.9131 20Z" fill="#FFFF00"/>
<path d="M33.0435 10.4348C31.2371 10.4357 29.5011 9.73394 28.2028 8.47785C26.9045 7.22175 26.1457 5.50988 26.087 3.70436C25.2247 3.56053 24.3525 3.48493 23.4783 3.47827C21.1652 3.47592 18.8777 3.96188 16.7653 4.90436L20.2435 10.9913C21.2815 10.6201 22.376 10.4318 23.4783 10.4348C25.7235 10.434 27.899 11.2145 29.6316 12.6425C31.3643 14.0705 32.5459 16.0568 32.974 18.2609H39.9305C39.5899 15.0643 38.3133 12.0394 36.2609 9.56523C35.2748 10.1115 34.1706 10.4099 33.0435 10.4348Z" fill="#FFFF00"/>
<path d="M33.0435 29.5652C34.1942 29.5787 35.3236 29.8775 36.3304 30.4348C38.3828 27.9606 39.6593 24.9357 40 21.7391H33.0435C32.6132 23.9549 31.4213 25.9504 29.6743 27.3798C27.9274 28.8091 25.7354 29.5822 23.4782 29.5652C22.3876 29.5642 21.3052 29.3759 20.2782 29.0087L16.8 35.0957C18.9017 36.0334 21.1769 36.5192 23.4782 36.5217C24.3582 36.516 25.2363 36.4404 26.1043 36.2957C26.1629 34.4931 26.9193 32.7838 28.2138 31.5282C29.5084 30.2726 31.24 29.5688 33.0435 29.5652Z" fill="#FFFF00"/>
</svg>
