<?xml version="1.0" encoding="UTF-8"?>
<svg id="_레이어_1" xmlns="http://www.w3.org/2000/svg" version="1.1" viewBox="0 0 200 40">
  <!-- Generator: Adobe Illustrator 29.7.1, SVG Export Plug-In . SVG Version: 2.1.1 Build 8)  -->
  <defs>
    <style>
      .st0 {
        fill: #fff;
      }

      .st1 {
        stroke-width: .36px;
      }

      .st1, .st2 {
        fill: none;
        stroke: #003378;
      }

      .st3 {
        fill: #003378;
      }

      .st2 {
        stroke-width: .14px;
      }

      .st4 {
        fill: #0093d9;
      }
    </style>
  </defs>
  <path class="st0" d="M18.33,33.51c-9.07,0-16.45-6.07-16.45-13.53S9.26,6.45,18.33,6.45s16.45,6.07,16.45,13.53-7.38,13.53-16.45,13.53Z"/>
  <g>
    <path class="st0" d="M50.51,16.36v2.89s-2.81,0-2.81,0v-2.87h-7.62v-1.01h3.87v-1.29h-4.57v-1.08h8.21v-2.55h-7.55v-1.06h9.52c.69,0,.91.75.91,1.03v2.58h.69v1.08h-4.51v1.29h2.86c1.03,0,1,.99,1,.99Z"/>
    <path class="st0" d="M47.03,22.21v2.25h-4.8v1.03h4.57c.7,0,.91-.32.91-.32v-3.94h2.74v5.61h-2.74v-.66s-.25.38-1.22.38h-6.16c-.26,0-.45-.07-.57-.2-.15-.15-.23-.4-.23-.75v-2.19h4.84v-1.16h-4.84v-1.04h6.6s.9.05.9.98ZM50.44,30.86h-9.62c-.26-.01-.46-.08-.59-.22-.15-.16-.23-.4-.23-.74v-2.45h2.74v.51h4.95v-.51h2.76v3.41ZM47.68,29.02h-4.95v.77h4.95v-.77Z"/>
    <g>
      <polygon class="st0" points="80.47 21.77 55.26 21.77 55.26 24.13 65.22 24.13 65.22 30.81 71.04 30.81 71.04 24.13 80.47 24.13 80.47 21.77"/>
      <path class="st0" d="M58.32,19.94h20.99v-10.48h-5.82v3.15h-11.51v-3.14h-5.82v8.15c0,1.24.81,2.26,2.15,2.32ZM73.49,14.97v2.61h-11.51v-2.61h11.51Z"/>
    </g>
    <path class="st0" d="M108.26,9.44h-5.86v1.46h-2.9s0-1.46,0-1.46h-15.09v2.22h9.31c.12,1.48.02,7.65-10.36,8.11l1.31,2.15s7.17.19,12.12-3.67h5.61s0,3.54,0,3.54c-1.66-.43-3.57-.67-5.61-.67-6.32,0-11.45,2.33-11.45,5.21s5.12,5.21,11.45,5.21,11.47-2.33,11.47-5.21V9.44ZM98.47,15.89c.38-.78.66-1.64.82-2.63h3.1s0,2.63,0,2.63h-3.93ZM91.28,26.27c0-1.54,2.49-2.78,5.55-2.78s5.55,1.24,5.55,2.78-2.49,2.78-5.55,2.78-5.55-1.25-5.55-2.78Z"/>
    <path class="st0" d="M195.7,11.76c0-1.21-.78-2.19-2.14-2.31h-19.79v2.37h16.12v16.67h-2.2v-9.31h-5.04v9.31h-1.94v-9.31h-5.04v9.31h-3.76v2.36h25.22v-2.36h-1.42V11.76"/>
    <path class="st0" d="M113.42,26.23c0,1.21.96,2.32,2.29,2.32h.03s8.33-.01,8.33-.01c.27,0,2.22,0,2.81-.84v3.15h5.04v-11.97h1.51v11.92h5.04V9.46h-5.04v7.06h-1.51v-7.06h-5.04v15.88c-.65.93-2.33.85-2.33.85h-5.3s0-14.39,0-14.39h5.82v-2.34h-11.64v16.76h-.01Z"/>
    <polygon class="st0" points="170.86 12.58 168.01 12.58 168.01 9.46 162.2 9.46 162.2 21.58 168.01 21.58 168.01 14.94 170.86 14.94 170.86 12.58"/>
    <path class="st0" d="M165.7,22.94h-21.42v2.36h17.91v5.53h5.81v-5.62c0-1.2-.98-2.27-2.29-2.27"/>
    <path class="st0" d="M156.73,11.82h3.39v-2.16h-5.56v-1.25h-5.82v1.25h-5.43v2.16h3.51c-2.42.77-3.83,2.44-3.83,4.44,0,3.23,3.93,5.84,8.78,5.84s8.78-2.61,8.78-5.84c0-2-1.49-3.79-3.83-4.44ZM151.78,19.35c-1.83,0-3.32-1.38-3.32-3.09s1.49-3.09,3.32-3.09,3.33,1.39,3.33,3.09-1.49,3.09-3.33,3.09Z"/>
  </g>
  <g>
    <g>
      <path class="st3" d="M14.97,25.72c-2.78-.41-4.91-2.75-4.91-5.65s2.15-5.24,4.92-5.66h.03c-2.01,1.11-3.39,3.21-3.39,5.66s1.32,4.5,3.3,5.62l.04.03Z"/>
      <path class="st3" d="M24.17,20.07c0-2.95-2.21-5.39-5.07-5.75l1.3,5.75h-2.07v8.21l.62-2.44c2.93-.29,5.22-2.76,5.22-5.77Z"/>
    </g>
    <path class="st1" d="M18.33,32.51c8.54,0,15.45-5.61,15.45-12.53s-6.92-12.53-15.45-12.53S2.88,13.06,2.88,19.98s6.92,12.53,15.45,12.53Z"/>
    <path class="st1" d="M18.33,32.51c8.54,0,15.45-5.61,15.45-12.53s-6.92-12.53-15.45-12.53S2.88,13.06,2.88,19.98s6.92,12.53,15.45,12.53Z"/>
    <path class="st2" d="M18.33,28.94c6.28,0,11.37-4.02,11.37-8.97s-5.09-8.97-11.37-8.97-11.37,4.02-11.37,8.97,5.09,8.97,11.37,8.97Z"/>
    <g>
      <g>
        <path class="st4" d="M21.8,25.72c2.78-.41,4.91-2.75,4.91-5.65s-2.15-5.24-4.92-5.66h-.03c2.01,1.11,3.39,3.21,3.39,5.66s-1.32,4.5-3.3,5.62l-.04.03Z"/>
        <path class="st4" d="M17.69,14.32c-2.88.34-5.12,2.79-5.12,5.76s2.17,5.34,4.98,5.74l-1.3-5.74h2.07v-8.33l-.64,2.57Z"/>
      </g>
      <g>
        <path class="st4" d="M7.67,25.05l-1.55.98-.28-.45c-.12-.18-.23-.35-.25-.57-.01-.21.07-.4.23-.5.15-.1.35-.11.54-.02.2.09.33.32.45.51l.04.07.59-.37.22.35ZM6.54,25.18c-.06-.09-.12-.19-.19-.26-.09-.09-.21-.11-.3-.05-.09.06-.11.18-.07.3.03.09.11.19.15.27l.04.07.4-.26-.04-.07Z"/>
        <path class="st4" d="M4.96,23.93l1.07-.41c.08-.03.16-.06.22-.13.07-.09.09-.21.04-.34-.04-.1-.12-.19-.22-.22-.1-.03-.19,0-.28.04l-1.07.41-.15-.39,1.07-.41c.17-.06.33-.11.52-.02.18.09.35.26.44.48.08.2.07.44,0,.62-.08.21-.23.29-.41.35l-1.07.41-.15-.39Z"/>
        <path class="st4" d="M4.37,22.17l-.06-.42.78-.11-.88-.59-.07-.5,1.01.72.8-.98.07.5-.69.81.79-.11.06.42-1.81.26Z"/>
        <path class="st4" d="M5.34,19.52l-1.21.65.04-.46.88-.43-.8-.56.04-.46,1.09.83.67.05-.03.42-.67-.05Z"/>
        <path class="st4" d="M6,15.91c.5.18.72.82.5,1.43-.21.61-.79.97-1.29.8-.5-.18-.73-.82-.51-1.43.22-.62.8-.97,1.3-.79ZM5.34,17.74c.32.11.71-.12.85-.51.14-.39-.02-.81-.34-.93-.32-.11-.7.11-.84.51-.14.4,0,.81.33.93Z"/>
        <path class="st4" d="M5.48,15l.27-.39,1.64-.02-1.1-.76.24-.35,1.51,1.04-.27.38-1.64.03,1.1.76-.24.35-1.5-1.04Z"/>
        <path class="st4" d="M8.62,12.18c-.2-.02-.44.07-.6.22-.14.13-.24.3-.28.47-.04.19,0,.39.12.52.1.11.28.18.45.17.2,0,.41-.1.57-.24.2-.18.31-.46.27-.69l-.7.64-.21-.24,1.1-.99.03.03c.36.4.21,1.07-.27,1.5-.49.44-1.17.51-1.54.11-.36-.4-.23-1.08.25-1.52.34-.31.83-.46,1.2-.31l-.37.34Z"/>
        <path class="st4" d="M10,10.56l.42-.21,1.45.77-.6-1.19.38-.19.82,1.63-.42.21-1.45-.76.6,1.19-.37.19-.82-1.63Z"/>
        <path class="st4" d="M12.97,9.26l.31-.1,1.46,1.46-.44.14-.38-.38-.77.24-.1.53-.44.14.35-2.03ZM13.67,10.11l-.4-.46-.06.6.46-.15Z"/>
        <path class="st4" d="M14.87,9.09l-.41.08-.06-.32,1.24-.24.06.32-.42.08.28,1.47-.41.08-.28-1.47Z"/>
        <path class="st4" d="M15.94,8.58l.42-.05.22,1.82-.42.05-.22-1.82Z"/>
        <path class="st4" d="M19.2,9.33c0,.53-.52.96-1.16.97-.65.01-1.19-.4-1.2-.93,0-.53.51-.97,1.17-.98.65-.01,1.19.41,1.2.94ZM17.26,9.35c0,.34.36.62.77.62.41,0,.76-.3.75-.64,0-.34-.35-.62-.77-.61-.42,0-.76.29-.75.63Z"/>
        <path class="st4" d="M19.72,8.45l.47.06.76,1.45.17-1.32.42.05-.24,1.81-.46-.06-.77-1.44-.17,1.32-.42-.06.24-1.81Z"/>
        <path class="st4" d="M22.9,9.02l.32.09.42,2.02-.45-.13-.11-.52-.77-.22-.37.39-.45-.13,1.41-1.5ZM23.01,10.12l-.08-.6-.38.47.47.13Z"/>
        <path class="st4" d="M24.5,9.54l.39.16-.58,1.38.64.27-.13.3-1.03-.43.71-1.69Z"/>
        <path class="st4" d="M27.09,10.84l-.63.95c-.05.07-.1.14-.1.23,0,.11.05.22.16.3.09.06.21.08.31.05.1-.03.15-.11.2-.19l.63-.95.35.23-.63.95c-.1.15-.21.28-.41.32-.2.04-.44,0-.63-.14-.18-.12-.31-.32-.36-.51-.05-.22.02-.37.13-.53l.63-.95.35.23Z"/>
        <path class="st4" d="M28.56,11.87l.34.33-.25,1.62.93-.96.3.29-1.27,1.31-.34-.32.25-1.62-.93.96-.3-.29,1.28-1.31Z"/>
        <path class="st4" d="M30.26,13.66l.25.33-1.46,1.11-.25-.34,1.46-1.11Z"/>
        <path class="st4" d="M30.84,14.37l.21.39-.94,1.19,1.51-.11.21.39-2.03.08-.16-.31,1.2-1.64Z"/>
        <path class="st4" d="M31.98,16.73l.33,1.17-.32.09-.22-.77-.4.11.21.74-.32.09-.21-.74-.4.11.22.77-.32.09-.33-1.17,1.76-.49Z"/>
        <path class="st4" d="M32.42,18.55l.05.66c.01.21.02.42-.09.6-.1.17-.26.28-.43.29-.13.01-.3-.06-.41-.16-.1-.1-.17-.24-.2-.39l-.63.66-.04-.52.66-.64-.7.05-.03-.42,1.82-.13ZM31.6,19.26c0,.11.03.25.1.33.06.06.13.1.2.09.08,0,.16-.05.2-.14.05-.1.05-.2.04-.32l-.02-.23-.54.04.02.23Z"/>
        <path class="st4" d="M31.15,20.7c-.14-.02-.25.12-.27.28-.02.16.06.3.19.32.2.03.29-.17.36-.35.06-.14.11-.27.22-.37.1-.1.25-.15.37-.13.3.04.48.37.43.73-.04.35-.32.63-.6.59l.05-.43c.11,0,.21-.1.22-.23.02-.14-.06-.24-.16-.25-.13-.02-.2.13-.26.26-.06.15-.12.3-.22.42-.12.15-.26.21-.44.19-.33-.04-.53-.41-.48-.81.05-.38.33-.7.65-.66l-.06.44Z"/>
        <path class="st4" d="M32.19,22.36l-.11.4-1.76-.49.11-.4,1.76.49Z"/>
        <path class="st4" d="M31.5,23.43l.16-.39.3.13-.48,1.17-.3-.13.16-.39-1.39-.57.16-.39,1.39.57Z"/>
        <path class="st4" d="M30.02,24.59l1.37-.02-.25.39-.98-.03.45.87-.24.39-.58-1.24-.57-.36.22-.36.57.36Z"/>
      </g>
    </g>
    <path class="st3" d="M19.73,29.55h-.64v.16h-.32v-.16h-1.66v.24h1.02c.01.16,0,.84-1.14.89l.14.24s.79.02,1.33-.4h.62s0,.39,0,.39c-.18-.05-.39-.07-.62-.07-.69,0-1.26.26-1.26.57s.56.57,1.26.57,1.26-.26,1.26-.57v-1.85ZM18.66,30.25c.04-.09.07-.18.09-.29h.34s0,.29,0,.29h-.43ZM17.87,31.39c0-.17.27-.3.61-.3s.61.14.61.3-.27.31-.61.31-.61-.14-.61-.31Z"/>
    <g>
      <polygon class="st3" points="16.4 30.9 13.69 30.33 13.64 30.58 14.71 30.8 14.56 31.52 15.18 31.65 15.33 30.94 16.34 31.15 16.4 30.9"/>
      <path class="st3" d="M14.06,30.2l1.86.39.39.08.24-1.13-.62-.13-.07.34-1.24-.26.07-.34-.63-.13-.18.88c-.03.13.04.26.18.3ZM15.8,30.01l-.06.28-1.23-.26.06-.28,1.24.26Z"/>
    </g>
    <path class="st3" d="M12.68,28.75l-.23.5-1.06-.49-.11.23s.92.43,1.01.47c.15.07.23.02.23.02l.4-.87.6.28-.57,1.24-.6-.28.07-.14s-.09.06-.31-.04c-.12-.06-1.36-.63-1.36-.63-.06-.03-.09-.06-.11-.1-.02-.05-.01-.11.03-.19l.22-.48,1.07.49.12-.26-1.07-.49.11-.23,1.45.67s.19.1.1.31ZM12.55,31.01l-2.12-.99c-.06-.03-.09-.06-.11-.11-.02-.05-.01-.11.02-.19l.25-.54.6.28-.05.11,1.09.51.05-.11.61.28-.35.75ZM12.13,30.32l-1.09-.51-.08.17,1.09.51.08-.17Z"/>
    <path class="st3" d="M9.57,28.72l-.43.53-.52-.42.43-.53-1.4-1.15.15-.19.71.58.19-.24-.84-.69.16-.2,1.51,1.24.38-.47-1.39-1.14.16-.19,1.75,1.43c.13.1.05.27.01.33-.04.05-.39.47-.39.47l.13.1-.16.2-.83-.68-.19.24.52.43c.19.16.03.33.03.33Z"/>
    <path class="st3" d="M20.68,31.3c.03.13.16.23.3.2h0s.89-.19.89-.19c.03,0,.24-.05.28-.15l.07.34.54-.11-.27-1.29.16-.03.27,1.28.54-.11-.48-2.29-.54.11.16.76-.16.03-.16-.76-.54.11.36,1.71c-.05.11-.23.14-.23.14l-.57.12-.32-1.55.63-.13-.05-.25-1.25.26.38,1.8h0Z"/>
    <polygon class="st3" points="26.31 27.77 26.03 27.9 25.89 27.59 25.31 27.85 25.86 29.07 26.44 28.8 26.14 28.14 26.42 28.01 26.31 27.77"/>
    <path class="st3" d="M26.27,29.04l-2.14.97.11.24,1.79-.81.25.55.58-.26-.26-.56c-.05-.12-.2-.18-.33-.12"/>
    <path class="st3" d="M24.87,28.34l.34-.15-.1-.22-.56.25-.06-.12-.58.26.06.13-.54.25.1.22.35-.16c-.21.19-.27.42-.18.62.15.32.66.41,1.14.19.48-.22.76-.66.61-.98-.09-.2-.32-.31-.58-.27ZM24.71,29.31c-.18.08-.39.01-.47-.16-.08-.17,0-.38.19-.46.18-.08.39-.01.47.16.08.17,0,.38-.19.46Z"/>
    <path class="st3" d="M28.44,25.96c-.09-.1-.22-.13-.34-.04l-1.66,1.4.17.2,1.35-1.14,1.18,1.4-.18.16-.66-.78-.42.36.66.78-.16.14-.66-.78-.42.36.66.78-.31.27.17.2,2.11-1.79-.17-.2-.12.1-1.19-1.4"/>
  </g>
</svg>