<?xml version="1.0" encoding="UTF-8"?>
<svg id="_레이어_1" xmlns="http://www.w3.org/2000/svg" version="1.1" viewBox="0 0 200 40">
  <!-- Generator: Adobe Illustrator 29.7.1, SVG Export Plug-In . SVG Version: 2.1.1 Build 8)  -->
  <defs>
    <style>
      .st0 {
        fill: #fff;
      }
    </style>
  </defs>
  <path class="st0" d="M49.4.58c-10.7,0-19.43,8.72-19.43,19.42s8.73,19.42,19.43,19.42,19.42-8.72,19.42-19.42S60.08.58,49.4.58ZM49.4,38.88c-10.41,0-18.88-8.47-18.88-18.88S38.99,1.12,49.4,1.12s18.87,8.49,18.87,18.88-8.49,18.88-18.87,18.88Z"/>
  <path class="st0" d="M49.4,5.61c-7.92,0-14.39,6.47-14.39,14.39s6.47,14.38,14.39,14.38,14.38-6.45,14.38-14.38-6.46-14.39-14.38-14.39ZM49.4,34.02c-7.73,0-14.04-6.29-14.04-14.02s6.3-14.02,14.04-14.02,14.02,6.29,14.02,14.02-6.29,14.02-14.02,14.02Z"/>
  <path class="st0" d="M56.87,10.62c-.41,1.17-1.69,2.27-3.19,2.49v-2.49h-3.28l-.4-.65h-1.39l-.4.65h-3.27v2.49c-1.51-.22-2.77-1.32-3.2-2.49h-1.5v11.26c0,6.76,4.85,10.27,9.06,10.89,4.2-.62,9.04-4.13,9.04-10.89v-11.26h-1.48ZM52.46,11.76v1.33c-1.25-.18-2.06-.88-2.47-1.33h2.47ZM46.16,11.76h2.47c-.41.45-1.22,1.15-2.47,1.33v-1.33ZM57.24,22.99c-.4,4.39-3.53,7.95-7.92,8.72-4.41-.77-7.54-4.33-7.94-8.72v-10.84c1.9,2.42,5.55,2.9,7.94.47,2.39,2.43,6.03,1.95,7.92-.47v10.84Z"/>
  <path class="st0" d="M55.88,21.03c0-1.4-.97-2.58-2.28-2.87v-1.24h1.04v-1.13h-3.39v1.13h1.04v1.22c-1.32.29-2.31,1.47-2.31,2.88s1.02,2.61,2.36,2.88c.04.18.05.36.05.55,0,1.73-1.41,3.14-3.14,3.14s-3.16-1.41-3.16-3.14c0-.34.05-.66.16-.98h1.66v-1.04h-3.71v-2.97h3.71v-1h-1.77v-1.55h1.13v-1.13h-3.31v1.13h.97v1.55h-1.95v5.01h2.18c-.08.32-.11.65-.11.98,0,2.31,1.88,4.19,4.19,4.19s4.19-1.88,4.19-4.19c0-.18-.01-.36-.04-.54,1.4-.22,2.47-1.44,2.47-2.9ZM52.93,22.91c-1.03,0-1.88-.85-1.88-1.88s.85-1.9,1.88-1.9,1.9.85,1.9,1.9-.85,1.88-1.9,1.88Z"/>
  <path class="st0" d="M36.39,32.48l.41-.38c-.03.21-.01.37.03.51.04.14.11.25.22.36.1.1.21.17.32.17.11.01.21-.01.3-.11.07-.07.11-.15.11-.23.01-.1,0-.27-.07-.52-.08-.4-.11-.67-.08-.81.01-.15.1-.29.21-.4.16-.18.37-.25.59-.23.22,0,.43.11.62.29.08.08.15.18.21.29.05.1.1.22.14.34l-.36.36c-.01-.18-.04-.32-.1-.43-.04-.11-.11-.22-.18-.29-.1-.1-.21-.15-.32-.16-.11-.01-.19.01-.27.08-.1.11-.11.37-.01.78.01.03.01.06.01.07.08.32.11.56.07.73-.03.16-.12.32-.26.45-.16.16-.36.25-.59.23-.22-.01-.43-.11-.62-.29-.11-.12-.19-.25-.26-.37-.06-.12-.1-.26-.11-.43h0ZM38.69,34.82l.36.25,1.74-2.49-.36-.23-1.74,2.47h0ZM40.53,36l1.28-2.75.34.17.81,2.98,1-2.14.38.18-1.28,2.76-.36-.16-.8-2.98-1,2.14-.38-.19h0ZM47.38,37.5l-.1.48c-.19.05-.38.08-.58.1-.18.01-.37,0-.55-.03-.16-.04-.33-.1-.47-.16-.15-.07-.29-.16-.4-.29-.21-.18-.33-.4-.41-.65-.08-.25-.1-.51-.04-.77.04-.21.11-.4.23-.56.11-.18.26-.32.44-.43.19-.12.38-.19.6-.23.21-.04.43-.03.67.01.16.03.33.08.48.15.16.07.33.17.49.29l-.1.45c-.16-.14-.33-.25-.49-.33-.15-.08-.3-.14-.47-.16-.34-.07-.65-.01-.92.16-.27.16-.44.41-.49.74-.07.33-.01.62.18.88.18.26.44.41.77.48.18.04.36.04.55.01.19-.01.38-.07.59-.15h0ZM48.81,38.31l-.05-3.03,1.83-.03v.38h-1.39s.01.93.01.93h1.36s0,.37,0,.37l-1.35.03v.95s1.46-.03,1.46-.03v.38l-1.87.04h0ZM52.85,37.98l-.69-2.97.41-.1.69,2.97-.41.1h0ZM55.95,35.05h0c-.01-.1-.03-.15-.04-.18-.07-.18-.18-.3-.32-.37-.12-.07-.27-.08-.43-.01-.14.06-.22.14-.27.25-.04.12-.04.25.01.4.05.14.15.23.27.29.11.05.25.05.37,0,.1-.04.18-.08.25-.15.05-.06.11-.12.15-.22h0ZM56.06,35.52c-.07.08-.15.14-.21.19-.07.06-.14.1-.21.12-.23.1-.45.08-.67-.01-.21-.1-.37-.26-.47-.49-.1-.26-.1-.49,0-.73.1-.23.29-.4.54-.51.27-.1.52-.1.76.03.23.11.41.32.54.62.15.37.19.77.12,1.17-.07.4-.23.81-.51,1.21l-.33-.18c.16-.26.29-.51.37-.74.07-.23.1-.47.07-.67h0ZM59.3,35.37l-.55-.85-1.09.71-.11-.16.26-2.4.15-.11.93,1.44.29-.19.19.3-.29.19.56.84-.36.23h0ZM58.56,34.21l-.49-.77-.11,1.15.6-.38h0ZM60.58,32.94s.04.05.05.08c.01.03.04.04.06.07.12.14.27.22.43.23.15.01.27-.03.4-.14.11-.1.16-.22.16-.34s-.05-.25-.15-.36c-.11-.1-.22-.15-.36-.16-.14,0-.25.04-.36.14-.07.06-.12.12-.16.21-.04.08-.06.18-.07.27h0ZM60.32,32.54c.04-.08.08-.16.12-.25.04-.07.1-.14.15-.18.18-.18.38-.25.62-.23.23.01.44.11.62.3.19.19.27.41.26.66-.01.25-.12.47-.33.66-.21.19-.44.27-.7.26-.26-.03-.49-.16-.73-.4-.27-.3-.45-.65-.54-1.03-.08-.4-.07-.84.06-1.3l.37.05c-.07.3-.1.58-.08.81.01.25.08.47.18.65Z"/>
  <path class="st0" d="M31.59,21.58l.07.69,2.2-.19-.07-.69c-.03-.37-.15-.66-.36-.85-.22-.21-.49-.29-.84-.26-.34.04-.6.17-.78.4-.18.23-.25.54-.22.91h0ZM31.18,21.61c-.01-.22-.01-.41.01-.58s.08-.32.16-.45c.12-.22.29-.4.49-.52.21-.14.44-.21.7-.23.26-.03.49.01.73.11.23.08.43.23.58.43.1.12.18.26.23.43.06.15.1.34.11.56l.1,1.11-3.02.26-.1-1.11h0ZM32.74,17.71c.15.03.3.04.45.01.15-.03.29-.08.41-.16.14-.07.25-.18.33-.3.1-.12.15-.26.19-.41.04-.15.04-.3.01-.45-.03-.15-.08-.29-.17-.43-.08-.12-.18-.23-.3-.33-.12-.08-.26-.15-.41-.18-.15-.04-.3-.04-.45-.01-.14.01-.29.07-.43.16-.12.07-.23.18-.33.3-.08.12-.15.26-.18.41-.04.15-.04.29-.01.44.03.15.08.3.16.44.07.12.18.23.3.32.12.1.26.15.41.19h0ZM32.62,18.15c-.19-.04-.37-.12-.54-.25-.18-.12-.32-.27-.41-.45-.11-.19-.19-.38-.22-.59-.03-.21-.03-.41.03-.63.04-.21.14-.4.25-.58.12-.18.27-.32.45-.44.18-.11.38-.19.58-.22.21-.04.41-.03.63.01.19.06.38.14.55.26.16.11.3.26.41.45.11.18.18.38.21.59.04.21.03.41-.03.63-.04.21-.12.4-.25.58-.12.16-.27.32-.45.43-.18.12-.37.19-.58.23-.21.03-.41.03-.63-.03h0ZM35.27,14.15l-2.68-1.43.18-.33,3.01-.66-2.07-1.11.21-.38,2.68,1.43-.18.34-3.02.65,2.09,1.11-.21.38h0ZM38.15,7.57l.92.89c-.07.21-.15.38-.25.55-.1.15-.19.29-.32.41s-.26.23-.4.32c-.15.08-.3.15-.45.18-.26.07-.52.05-.77-.01-.25-.07-.48-.19-.67-.38-.15-.14-.26-.3-.34-.49-.08-.19-.12-.4-.11-.6,0-.22.04-.44.12-.63.08-.19.22-.38.38-.56.12-.12.25-.23.4-.33.15-.1.32-.18.49-.25l.34.33c-.21.07-.4.14-.55.23-.15.08-.29.18-.4.3-.25.25-.37.54-.37.87s.12.59.36.82c.23.22.52.33.84.32.32,0,.59-.14.84-.38.07-.07.12-.15.19-.25.06-.1.1-.19.14-.3l-.41-.41-.4.41-.29-.27.7-.74h0ZM39.83,7.08l-.21-.29.93-.66.21.3-.93.65h0ZM42.29,5.07l.87-.38-.88-.8v1.18h.01ZM41.9,6.65l-.04-3.31.29-.12,2.46,2.22-.41.19-.73-.66-1.18.52v.97s-.38.18-.38.18h0ZM45.54,2.05l.43-.06.22,1.73c.01.19.04.33.08.41.03.08.07.14.12.19.1.1.22.16.34.19.12.04.27.05.43.03.26-.03.47-.12.6-.27.15-.15.21-.34.18-.56l-.23-1.92.43-.06.23,1.94c.04.33-.04.62-.26.87-.21.23-.51.37-.89.43-.23.03-.44.01-.63-.04-.19-.07-.37-.16-.51-.3-.1-.08-.16-.18-.21-.29-.06-.12-.08-.29-.11-.54l-.22-1.74h0ZM49.96,4.7l.37-3.01.38.04,1.69,2.58.29-2.33.43.04-.37,3.02-.38-.06-1.69-2.58-.29,2.35-.43-.06h0ZM54.14,5.52l.99-2.87.41.14-.99,2.87-.41-.14h0ZM56.71,6.68l.25-3.32.4.22-.18,2.35,1.85-1.46.4.21-2.62,2.06-.1-.05h0ZM58.85,8.02l1.4,1.22.26-.29-1.09-.95.62-.71,1.03.89.25-.3-1.02-.88.6-.7,1.04.92.26-.29-1.37-1.21-1.99,2.29h0ZM61.13,10.25l2.46-1.79.52.71c.18.25.26.48.23.7-.01.22-.14.41-.34.56-.17.12-.32.18-.48.18-.15,0-.3-.07-.47-.19v.18c-.01.07-.04.16-.08.27l-.47,1.25-.32-.43.34-.88c.1-.27.15-.47.15-.58-.01-.12-.04-.23-.12-.34l-.08-.1-1.1.8-.25-.36h0ZM62.78,9.59l.21.29c.12.16.25.26.37.3.11.03.25,0,.37-.1.14-.1.21-.21.21-.32,0-.12-.05-.27-.18-.44l-.22-.3-.76.56h0ZM63.12,12.8c-.04.15-.06.29-.04.43.01.15.05.29.12.44.11.23.27.4.48.48.21.1.41.08.63-.01.18-.08.32-.19.4-.33.1-.15.15-.38.19-.73.01-.01.01-.04.01-.07.05-.43.15-.66.27-.73.1-.04.19-.04.3.01.1.04.16.14.22.26.06.1.08.21.08.33s-.01.27-.05.44l.45-.22c.01-.12.01-.26-.01-.37-.01-.12-.04-.23-.1-.33-.11-.25-.27-.41-.48-.49-.21-.08-.41-.08-.63.01-.15.07-.26.18-.33.3-.08.14-.14.4-.19.81-.04.26-.08.43-.12.51-.04.08-.11.15-.19.19-.11.05-.22.05-.32,0-.1-.04-.18-.14-.25-.27-.05-.12-.08-.26-.07-.41,0-.14.05-.3.14-.49l-.52.25h0ZM64.01,15.73l2.91-.88.12.41-2.9.88-.14-.41h0ZM64.56,18.37l2.64-.22-.1-1.11.38-.04.23,2.65-.4.04-.1-1.11-2.62.23-.04-.44h0ZM64.52,21.83l1.5.21,1.68-.95-.08.51-1.26.71,1.02,1.07-.07.51-1.36-1.41-1.48-.21.07-.44Z"/>
  <path class="st0" d="M34.44,27.24c.23,0,.43.19.43.43s-.19.43-.43.43-.43-.19-.43-.43.19-.43.43-.43Z"/>
  <path class="st0" d="M64.15,27.24c.23,0,.43.19.43.43s-.19.43-.43.43-.43-.19-.43-.43.19-.43.43-.43Z"/>
  <g>
    <path class="st0" d="M93.06,16.27h-7.31v-1.86h5.76v-1.86h-11.98v-2.91h11.98v-1.79h-14.58v5.1c0,.69.71,1.45,1.48,1.45h4.6v1.86h-7.34v1.79h3.74c-.9.83-1.43,1.91-1.43,3.07,0,2.67,2.81,4.86,6.26,4.86s6.26-2.19,6.26-4.86c0-1.17-.52-2.24-1.4-3.07h3.95v-1.79ZM84.25,24.23c-2.12,0-3.83-1.38-3.83-3.1s1.71-3.12,3.83-3.12,3.83,1.4,3.83,3.12-1.71,3.1-3.83,3.1Z"/>
    <polygon class="st0" points="111.14 7.36 108.59 7.36 108.59 25.63 111.14 25.63 111.14 13.72 113.45 13.72 113.45 12.03 111.14 12.03 111.14 7.36"/>
    <path class="st0" d="M100.54,7.36c-2.88,0-5.22,2.55-5.22,5.69s2.33,5.69,5.22,5.69,5.19-2.55,5.19-5.69-2.33-5.69-5.19-5.69ZM100.54,16.89c-1.52,0-2.76-1.71-2.76-3.83s1.24-3.83,2.76-3.83,2.74,1.71,2.74,3.83-1.24,3.83-2.74,3.83Z"/>
    <path class="st0" d="M123.23,8.01h-6.88v8.91c0,.71.74,1.45,1.48,1.45h7.57v7.26h2.26v-11.91h1.52v11.91h2.38V7.36h-2.38v4.67h-1.52v-4.67h-2.26v9.17h-6.45v-6.88h4.29v-1.64Z"/>
    <polygon class="st0" points="136.78 18.92 148.15 18.92 148.15 7.74 150.62 7.74 150.62 12.29 153.17 12.29 153.17 13.98 150.62 13.98 150.62 25.63 148.15 25.63 148.15 20.8 136.78 20.8 136.78 18.92"/>
    <path class="st0" d="M146.84,8.44h-4.5v-1.43h-2.6v1.43h-4.43v1.64h1.64c-.55.69-.86,1.5-.86,2.38,0,2.36,2.26,4.29,5.03,4.29s5.03-1.93,5.03-4.29c0-.88-.31-1.69-.83-2.38h1.52v-1.64ZM141.12,14.94c-1.4,0-2.57-1.12-2.57-2.48s1.17-2.5,2.57-2.5,2.57,1.12,2.57,2.5-1.17,2.48-2.57,2.48Z"/>
    <path class="st0" d="M155.82,9.91v-1.62h12.74c.79,0,1.48.71,1.48,1.45v14.6h-14.91v-1.91h3.17v-6.6h2.12v6.6h2.48v-6.6h2.29v6.6h2.52v-12.53h-11.88Z"/>
  </g>
  <path class="st0" d="M79.13,29.3h-1.21v3.91h1.21c.67,0,1.17-.17,1.55-.5.38-.36.57-.83.57-1.43s-.19-1.1-.57-1.45c-.38-.33-.88-.52-1.55-.52h0ZM79.13,28.56c.38,0,.74.05,1.02.12.29.07.55.19.79.36.36.24.64.57.83.95.19.38.31.81.31,1.26,0,.48-.12.91-.31,1.29-.19.38-.48.69-.83.95-.24.14-.5.26-.79.33-.29.09-.64.12-1.02.12h-1.98v-5.38h1.98ZM84.77,31.28c0,.26.05.52.14.76.1.26.26.48.45.67.17.19.4.33.64.45.26.09.52.14.79.14.29,0,.55-.05.81-.14.24-.1.45-.26.67-.45.19-.19.33-.4.43-.67.09-.24.17-.5.17-.76,0-.29-.05-.55-.17-.79-.1-.24-.24-.48-.45-.67-.19-.21-.4-.36-.67-.45-.24-.12-.5-.17-.79-.17-.26,0-.52.05-.76.17-.26.09-.48.26-.67.45-.19.19-.36.4-.45.64-.09.26-.14.52-.14.81h0ZM83.94,31.23c0-.36.07-.69.21-1.02.17-.36.36-.64.64-.91.26-.26.57-.48.93-.6.33-.14.69-.21,1.07-.21.4,0,.76.07,1.12.21.36.14.67.33.93.6.26.26.48.57.62.91.14.33.21.69.21,1.07s-.07.74-.21,1.07c-.14.33-.36.62-.62.88-.29.26-.6.48-.93.6-.36.14-.71.21-1.12.21-.38,0-.74-.07-1.1-.21-.33-.14-.64-.33-.91-.6-.29-.26-.5-.57-.64-.91-.14-.33-.21-.69-.21-1.1h0ZM91.8,33.94v-5.38h.67l3.55,4.19v-4.19h.76v5.38h-.69l-3.52-4.17v4.17h-.76ZM103.75,31.3v2.29c-.36.14-.69.26-1,.33-.33.09-.62.12-.91.12-.33,0-.64-.05-.93-.12-.29-.07-.52-.19-.76-.36-.4-.26-.71-.6-.95-1-.21-.4-.33-.83-.33-1.33,0-.36.1-.69.24-1.05.14-.33.33-.62.62-.88.29-.29.59-.48.95-.62.36-.12.76-.19,1.19-.19.31,0,.59.02.91.1.31.07.62.19.93.33v.83c-.33-.19-.67-.31-.95-.4-.31-.09-.6-.14-.88-.14-.62,0-1.14.19-1.55.6-.43.38-.62.88-.62,1.48s.19,1.05.6,1.45c.4.38.93.57,1.52.57.19,0,.38-.02.57-.05.17-.05.36-.09.57-.19v-1.05h-1.02v-.71h1.81ZM105.92,32.49v-.64h2.02v.64h-2.02ZM110.99,31.68h1.67l-.86-1.95-.81,1.95h0ZM109.21,33.94l2.33-5.38h.57l2.36,5.38h-.81l-.69-1.57h-2.29l-.69,1.57h-.79ZM116.8,28.56h.76v3.1c0,.33.02.6.07.74.02.14.1.26.19.36.14.19.33.33.55.43.21.09.48.14.74.14.48,0,.86-.12,1.14-.36.29-.26.43-.57.43-.95v-3.45h.76v3.45c0,.62-.21,1.1-.64,1.48-.43.36-1,.55-1.69.55-.4,0-.76-.07-1.1-.21-.33-.14-.59-.36-.83-.64-.14-.17-.24-.33-.29-.55-.07-.21-.1-.52-.1-.95v-3.12h0ZM123.83,33.94v-5.38h.67l3.53,4.19v-4.19h.76v5.38h-.67l-3.52-4.17v4.17h-.76ZM131.24,33.94v-5.38h.76v5.38h-.76ZM136.05,33.99l-2.36-5.43h.79l1.67,3.83,1.71-3.83h.79l-2.41,5.43h-.19ZM140.33,33.94v-5.38h3.22v.69h-2.45v1.64h2.38v.69h-2.38v1.67h2.55v.69h-3.31ZM145.86,33.94v-5.38h1.57c.55,0,.95.14,1.26.4.29.24.43.62.43,1.07,0,.36-.07.64-.24.86-.17.22-.4.38-.76.48.1.05.17.12.26.19.07.09.17.24.31.43l1.29,1.95h-.93l-.91-1.41c-.29-.43-.5-.69-.69-.81-.17-.12-.36-.19-.6-.19h-.24v2.41h-.76ZM146.62,30.89h.64c.36,0,.62-.07.81-.21.17-.12.26-.33.26-.62s-.09-.5-.26-.64c-.17-.12-.43-.19-.81-.19h-.64v1.67h0ZM151.29,33.51v-1c.24.29.48.48.71.6.21.12.45.19.69.19.26,0,.48-.07.64-.19.14-.12.21-.29.21-.5,0-.17-.05-.33-.14-.45-.1-.14-.36-.33-.74-.57-.62-.4-1-.69-1.14-.91-.17-.21-.24-.48-.24-.79,0-.4.14-.76.45-1.02.29-.26.67-.4,1.14-.4.19,0,.41.05.6.1.22.07.41.17.62.29v.86c-.24-.19-.45-.31-.67-.4-.19-.09-.38-.12-.59-.12-.24,0-.43.05-.6.17-.14.12-.22.29-.22.45,0,.29.31.59.95,1,.05.02.07.05.12.07.5.31.83.6,1,.83.17.26.24.55.24.93,0,.4-.14.74-.45,1-.29.29-.67.4-1.14.4-.29,0-.55-.05-.76-.12-.24-.07-.48-.21-.69-.4h0ZM156.48,33.94v-5.38h.76v5.38h-.76ZM161.15,33.94v-4.67h-1.98v-.71h4.69v.71h-1.95v4.67h-.76ZM167.06,33.94v-2.69l-2.07-2.69h.9l1.57,2.05,1.59-2.05h.93l-2.14,2.74v2.64h-.79Z"/>
</svg>