<?xml version="1.0" encoding="UTF-8"?>
<svg id="_레이어_1" xmlns="http://www.w3.org/2000/svg" version="1.1" viewBox="0 0 200 40">
  <!-- Generator: Adobe Illustrator 29.7.1, SVG Export Plug-In . SVG Version: 2.1.1 Build 8)  -->
  <defs>
    <style>
      .st0, .st1 {
        fill: #fff;
      }

      .st1 {
        fill-rule: evenodd;
      }
    </style>
  </defs>
  <g>
    <g>
      <g>
        <path class="st0" d="M96.68,13.82c0-2.86,2.19-5.18,4.89-5.18s4.89,2.32,4.89,5.18-2.19,5.18-4.89,5.18-4.89-2.32-4.89-5.18ZM101.58,16.89c1.21,0,2.19-1.38,2.19-3.08s-.97-3.08-2.19-3.08-2.19,1.38-2.19,3.08.97,3.08,2.19,3.08Z"/>
        <polygon class="st0" points="102.96 7.63 102.96 5.9 100.18 5.9 100.18 7.63 96.54 7.63 96.54 9.63 106.6 9.63 106.6 7.63 102.96 7.63"/>
        <polygon class="st0" points="111.08 6.54 108.3 6.54 108.3 22.69 111.08 22.69 111.08 13.47 113.58 13.47 113.58 11.49 111.08 11.49 111.08 6.54"/>
      </g>
      <polygon class="st0" points="128.08 6.54 128.08 11.46 127.09 11.46 127.09 6.54 124.42 6.54 124.42 22.69 127.09 22.69 127.09 13.6 128.08 13.6 128.08 22.69 130.75 22.69 130.75 6.54 128.08 6.54"/>
      <path class="st0" d="M118.93,9.25h4.21v-1.98h-7.01v9.56c0,1.01.8,1.82,1.81,1.82h7.46v-1.98h-6.49v-7.41h.01Z"/>
      <g>
        <path class="st0" d="M82.8,16.5v4.2h10.3v1.99h-11.28c-1.01,0-1.81-.81-1.81-1.82v-4.37s2.79,0,2.79,0Z"/>
        <rect class="st0" x="90.3" y="6.54" width="2.79" height="10.77"/>
        <path class="st0" d="M78.05,10.83c0-2.4,2.18-4.35,4.86-4.35s4.86,1.95,4.86,4.35-2.18,4.35-4.86,4.35-4.86-1.95-4.86-4.35ZM82.9,13.07c1.2,0,2.18-1.01,2.18-2.24s-.97-2.24-2.18-2.24-2.18,1.01-2.18,2.24.97,2.24,2.18,2.24Z"/>
      </g>
      <path class="st0" d="M133.92,11.71c0-2.07,2.04-3.75,4.55-3.75s4.55,1.68,4.55,3.75-2.04,3.75-4.55,3.75-4.55-1.68-4.55-3.75ZM138.47,13.58c1.03,0,1.86-.83,1.86-1.87s-.83-1.87-1.86-1.87-1.86.83-1.86,1.87.83,1.87,1.86,1.87Z"/>
      <polygon class="st0" points="139.86 7.66 139.86 5.92 137.08 5.92 137.08 7.66 133.57 7.66 133.57 9.64 143.37 9.64 143.37 7.66 139.86 7.66"/>
      <polygon class="st0" points="148.28 6.54 145.49 6.54 145.49 15.63 148.28 15.63 148.28 11.62 150.78 11.62 150.78 9.64 148.28 9.64 148.28 6.54"/>
      <polygon class="st0" points="135.44 16.5 135.44 18.48 145.49 18.48 145.49 22.69 148.28 22.69 148.28 16.5 135.44 16.5"/>
      <g>
        <polygon class="st0" points="161.91 19.58 161.91 13.6 159.11 13.6 159.11 19.58 151.78 19.58 151.78 21.57 168.07 21.57 168.07 19.58 161.91 19.58"/>
        <polyline class="st0" points="157.6 20.36 157.6 13.6 154.81 13.6 154.81 20.36"/>
        <path class="st0" d="M164.8,7.27h-11.5v1.98h10.47v10.62h2.78v-10.89c0-.96-.79-1.72-1.76-1.72h.01Z"/>
      </g>
    </g>
    <g>
      <path class="st0" d="M80.75,26.83h-.9v-.24h2.9v.24h-.9v6.39h.9v.24h-2.9v-.24h.9v-6.39Z"/>
      <path class="st0" d="M84.56,26.83h-.89v-.24h2.2l3.41,4.89h.02v-4.66h-1.04v-.24h2.21v.24h-.89v6.69l-.18.04-4.55-6.52h-.02v6.17h1.06v.24h-2.23v-.24h.89v-6.39h.01Z"/>
      <path class="st0" d="M96.31,26.83h-.87v-.24h2.87v.24h-.9v6.39h.9v.24h-2.87v-.24h.87v-3.17h-2.99v3.17h.87v.24h-2.86v-.24h.9v-6.39h-.9v-.24h2.86v.24h-.87v2.98h2.99v-2.98Z"/>
      <path class="st0" d="M102.24,30.76h-1.6l.82-2.46h.02s.76,2.46.76,2.46ZM99.5,33.22h-.81v.24h2.14v-.24h-1.01l.7-2.17h1.79l.65,2.17h-1v.24h3.1v-.24h-.89l-2.22-6.75h-.19l-2.27,6.75h.01Z"/>
      <path class="st0" d="M108.67,26.83h-.89v-.24h2.92v.24h-.95v4.57c0,1.25.27,1.83,1.82,1.83,1.81,0,1.99-.75,1.99-1.91v-4.49h-1.04v-.24h2.13v.24h-.81v4.59c0,1.32-.32,2.1-2.58,2.1s-2.62-.71-2.62-2v-4.69h.02Z"/>
      <path class="st0" d="M116.49,26.83h-.89v-.24h2.21l3.41,4.89h.02v-4.66h-1.04v-.24h2.21v.24h-.89v6.69l-.18.04-4.55-6.52h-.02v6.17h1.06v.24h-2.23v-.24h.89v-6.39h0Z"/>
      <path class="st0" d="M124.24,26.83h-.9v-.24h2.9v.24h-.9v6.39h.9v.24h-2.9v-.24h.9v-6.39Z"/>
      <path class="st0" d="M127.36,26.83h-.79v-.24h2.92v.24h-.99l1.6,5.06h.02l1.7-5.06h-.99v-.24h2.04v.24h-.71l-2.35,6.75h-.22l-2.25-6.75h.01Z"/>
      <path class="st0" d="M134.11,26.83h-.9v-.24h5.5l.05,2.11h-.25c-.3-1.7-.65-1.87-2.85-1.87h-.47v2.98h.52c1.12,0,1.19-.41,1.19-1.45h.29v3.28h-.29c0-1.2-.06-1.52-1.19-1.52h-.52v3.12h1.46c1.47,0,1.95-.74,2.15-2.11h.26l-.09,2.35h-5.78v-.24h.9v-6.41Z"/>
      <path class="st0" d="M142.02,26.83h.5c.99,0,1.31.53,1.31,1.42,0,.79-.28,1.44-1.14,1.44h-.67v-2.86h0ZM140.92,33.22h-.9v.24h2.86v-.24h-.87v-3.23h.61c1.22,0,1.44.41,1.52,1.67.09,1.35.17,1.81,1.34,1.81h.7v-.24h-.24c-.58,0-.66-.5-.71-1.52-.08-1.52-.51-1.71-1.95-1.88v-.02c.92-.12,1.63-.44,1.63-1.56,0-1.4-.87-1.66-2.08-1.66h-2.82v.24h.9v6.39h0Z"/>
      <path class="st0" d="M146.62,31.2h.26c.06,1.1.88,2.08,1.99,2.08.8,0,1.58-.41,1.58-1.33,0-1.85-3.72-1.19-3.72-3.56,0-1.22,1.04-1.91,2.18-1.91.56,0,1.26.17,1.78.41l.05,1.51h-.25c-.23-1.09-.79-1.62-1.69-1.62-.67,0-1.31.37-1.31,1.13,0,1.72,3.67,1.01,3.67,3.58,0,1.32-1.21,2.09-2.4,2.09-.71,0-1.34-.11-2.07-.43,0,0-.06-1.94-.06-1.94Z"/>
      <path class="st0" d="M152.79,26.83h-.91v-.24h2.9v.24h-.9v6.39h.9v.24h-2.9v-.24h.91v-6.39Z"/>
      <path class="st0" d="M158.02,26.89h-.82c-1,0-1.35,1.01-1.4,1.91h-.29v-2.2h6.12v2.2h-.29c-.04-.9-.41-1.91-1.4-1.91h-.82v6.33h1.06v.24h-3.21v-.24h1.06v-6.33h-.01Z"/>
      <path class="st0" d="M164.43,30l-1.8-3.17h-.8v-.24h3.06v.24h-1l1.52,2.82,1.43-2.82h-.97v-.24h2.04v.24h-.75l-1.62,3.16v3.24h.89v.24h-2.89v-.24h.91v-3.22h-.01Z"/>
    </g>
  </g>
  <g>
    <path class="st0" d="M51.16.77c-10.62,0-19.23,8.61-19.23,19.23s8.61,19.23,19.23,19.23,19.23-8.61,19.23-19.23S61.78.77,51.16.77ZM51.16,38.71c-10.33,0-18.71-8.38-18.71-18.71S40.83,1.29,51.16,1.29s18.71,8.38,18.71,18.71-8.38,18.71-18.71,18.71Z"/>
    <path class="st0" d="M51.16,7.74c-6.77,0-12.26,5.49-12.26,12.26s5.49,12.26,12.26,12.26,12.26-5.49,12.26-12.26-5.49-12.26-12.26-12.26ZM51.17,31.96c-6.62,0-11.96-5.36-11.96-11.96s5.36-11.96,11.96-11.96,11.96,5.36,11.96,11.96-5.36,11.96-11.96,11.96Z"/>
    <g>
      <path class="st0" d="M35.57,20.62c.4,0,.74-.32.74-.74s-.32-.74-.74-.74-.74.32-.74.74.32.74.74.74Z"/>
      <path class="st0" d="M67.12,20.62c.4,0,.74-.32.74-.74s-.32-.74-.74-.74-.74.32-.74.74.32.74.74.74Z"/>
      <path class="st0" d="M37.45,23.23l-.1-.37.1-.02.3,1.19-.1.02-.1-.37-2.61.66.1.37-.1.02-.3-1.19.1-.02.1.37,2.61-.66Z"/>
      <path class="st0" d="M37.92,24.83l-.15-.34.1-.04.38.84-1.3,2.15h0l1.8-.79-.17-.4.1-.04.38.86-.09.04-.15-.35-2.58,1.15-.05-.06,1.73-2.87h0l-2.38,1.05.18.41-.1.04-.38-.86.1-.04.15.35,2.47-1.09h-.03Z"/>
      <path class="st0" d="M40.32,29.03l-.22-.29.08-.06.74.96-.08.06-.23-.3-2.14,1.64.23.3-.08.06-.74-.96.08-.06.22.29,1.06-.81-.77-1.01-1.06.81.22.29-.08.06-.74-.96.08-.06.23.3,2.14-1.64-.23-.3.08-.06.74.96-.08.06-.22-.29-1,.76.77,1.01,1-.76Z"/>
      <path class="st0" d="M40.9,31.93l-.51-.45.95-.54h0l-.44,1ZM39.34,31.94l-.26-.23-.06.08.67.61.06-.08-.31-.28.82-.49.56.5-.4.87-.31-.28-.06.08.97.87.06-.08-.28-.25,1.19-2.75-.06-.05-2.61,1.49h.02Z"/>
      <path class="st0" d="M44.34,32.38l-.34-.15.04-.1,1.13.51-.04.09-.37-.16-.8,1.75c-.22.48-.22.75.38,1.02.69.31.9.06,1.09-.38l.78-1.72-.4-.18.04-.09.82.37-.04.1-.31-.14-.8,1.76c-.23.51-.49.75-1.35.36-.89-.4-.88-.73-.65-1.22l.82-1.8h0Z"/>
      <path class="st0" d="M47.52,33.66l-.37-.08.02-.1.91.17,1.02,2.3h0l.38-1.93-.43-.09.02-.1.92.17-.02.1-.37-.08-.54,2.77h-.08l-1.35-3.06h0l-.5,2.56.44.09-.02.1-.92-.18.02-.1.37.08.52-2.64-.02.02Z"/>
      <path class="st0" d="M50.94,34.15h-.38v-.1h1.22v.1h-.38v2.7h.38v.1h-1.22v-.1h.38v-2.7Z"/>
      <path class="st0" d="M52.5,34.07l-.32.05-.02-.1,1.21-.19.02.1-.41.06,1.01,1.99h0l.37-2.22-.41.06-.02-.1.84-.14.02.1-.29.04-.52,2.97h-.09l-1.4-2.64h.01Z"/>
      <path class="st0" d="M55.52,33.45l-.36.14-.03-.1,2.15-.86.35.82-.1.04c-.38-.62-.54-.63-1.41-.29l-.18.08.47,1.17.21-.08c.44-.17.4-.35.24-.76l.11-.04.51,1.29-.11.04c-.19-.47-.26-.58-.7-.41l-.21.08.49,1.22.57-.23c.57-.23.65-.6.52-1.16l.1-.04.32.93-2.26.9-.03-.1.36-.14-.99-2.51h-.01Z"/>
      <path class="st0" d="M58.71,31.89l.17-.12c.35-.23.58-.12.79.19.18.28.24.57-.06.77l-.24.15-.66-1.01h0ZM59.81,34.4l-.31.21.05.09,1.01-.66-.05-.09-.3.21-.75-1.14.22-.14c.43-.28.61-.18.92.24.35.45.48.6.89.32l.25-.16-.05-.09-.09.05c-.21.14-.35-.02-.61-.37-.38-.52-.57-.49-1.13-.21h0c.3-.26.48-.54.22-.93-.32-.49-.68-.38-1.12-.1l-.99.65.05.09.31-.21,1.48,2.25v-.02Z"/>
      <path class="st0" d="M61.69,32.03l.08-.08c.35.31.88.37,1.21.03.24-.24.36-.6.08-.87-.55-.55-1.47.75-2.18.03-.36-.37-.25-.88.09-1.21.17-.16.43-.32.66-.4l.47.43-.08.08c-.39-.26-.71-.25-.99.01-.21.19-.28.5-.06.73.51.52,1.4-.78,2.17-.01.39.39.26.99-.1,1.34-.22.22-.43.37-.75.49l-.6-.56h0Z"/>
      <path class="st0" d="M62.36,28.58l-.23.3-.08-.06.74-.99.08.06-.23.3,2.17,1.61.23-.3.08.06-.74.99-.08-.06.23-.3-2.17-1.61Z"/>
      <path class="st0" d="M63.69,26.58l-.16.31c-.18.37.12.7.44.89l-.05.11-.82-.42,1.17-2.3.82.42-.05.11c-.35-.15-.79-.21-.99.16l-.16.31,2.38,1.21.21-.4.09.04-.62,1.21-.09-.04.21-.4-2.38-1.21h.01Z"/>
      <path class="st0" d="M66.04,24.19l-1.49.39-.09.32-.1-.02.34-1.25.1.02-.11.41,1.31-.31-1-.89-.11.4-.1-.02.22-.83.1.02-.09.3,1.12,1.01,1.32.35.1-.36.1.02-.31,1.18-.1-.02.1-.37-1.31-.35h.01Z"/>
      <g>
        <path class="st0" d="M41.42,7.78c-.35-.57-.16-1.32.41-1.68.57-.36,1.33-.17,1.68.4s.16,1.32-.41,1.68c-.57.36-1.33.17-1.68-.4ZM42.85,7.75c.26-.16.3-.56.09-.9-.21-.34-.58-.49-.84-.34-.26.16-.3.56-.09.9.21.34.58.49.84.34Z"/>
        <polygon class="st0" points="42.01 5.72 41.8 5.37 41.2 5.74 41.41 6.08 40.64 6.55 40.87 6.95 43.03 5.64 42.78 5.24 42.01 5.72"/>
        <polygon class="st0" points="43.61 4.43 43.02 4.8 44.99 8.04 45.58 7.67 44.46 5.83 45 5.49 44.75 5.1 44.22 5.43 43.61 4.43"/>
      </g>
      <g>
        <polygon class="st0" points="52.41 2.7 52.41 3.84 52.16 3.84 52.16 2.7 51.49 2.7 51.49 6.49 52.16 6.49 52.16 4.35 52.41 4.35 52.41 6.49 53.08 6.49 53.08 2.7 52.41 2.7"/>
        <path class="st0" d="M50.11,3.33h1.06v-.47h-1.75v2.24c0,.24.21.42.45.42h1.87v-.47h-1.62v-1.74h-.01Z"/>
      </g>
      <g>
        <path class="st0" d="M37.56,13.73l.87.47,1.21-2.28.41.22-1.32,2.5c-.12.22-.38.31-.58.21l-.91-.48.32-.62h0Z"/>
        <rect class="st0" x="37.3" y="9.99" width=".7" height="2.53" transform="translate(10.09 39.27) rotate(-62.11)"/>
        <path class="st0" d="M35.83,14.16c-.5-.26-.65-.96-.34-1.56.31-.6.97-.87,1.47-.6.5.26.65.96.34,1.56-.31.6-.97.87-1.47.6ZM36.86,13.33c.14-.27.04-.6-.21-.73-.26-.14-.57-.03-.71.24s-.04.6.21.73c.26.14.57.03.71-.24Z"/>
      </g>
      <g>
        <path class="st0" d="M58.42,5.54c.27-.4.91-.45,1.44-.1.53.35.74.96.47,1.36s-.91.45-1.44.1c-.53-.35-.74-.96-.47-1.36ZM59.13,6.55c.22.14.5.1.63-.11s.06-.49-.14-.63c-.22-.14-.5-.1-.63.11-.13.21-.06.49.15.63h-.01Z"/>
        <polygon class="st0" points="60.18 5.58 60.41 5.24 59.82 4.85 59.61 5.2 58.87 4.71 58.61 5.1 60.66 6.45 60.92 6.06 60.18 5.58"/>
        <polygon class="st0" points="62.09 6.53 61.5 6.14 60.33 7.92 60.92 8.31 61.43 7.53 61.96 7.87 62.21 7.48 61.69 7.14 62.09 6.53"/>
        <polygon class="st0" points="58.11 6.7 57.85 7.09 59.95 8.48 59.41 9.3 60 9.69 60.8 8.48 58.11 6.7"/>
      </g>
      <g>
        <polygon class="st0" points="63.89 13.51 65.13 12.82 64.78 12.21 63.56 12.9 62.66 11.29 62.25 11.52 64.25 15.08 64.65 14.86 63.89 13.51"/>
        <polyline class="st0" points="63.21 12.66 64.6 11.88 64.25 11.27 62.87 12.04"/>
        <path class="st0" d="M66.77,12.72l-1.41-2.51-.41.23,1.29,2.3-2.18,1.22.35.61,2.23-1.26c.19-.11.26-.37.14-.58h-.01Z"/>
      </g>
    </g>
    <g>
      <path class="st0" d="M58.42,13.77h-2.82v-.71h-1.07v-3.06h-4.3c-.83,0-1.52.28-1.98.8-.43.49-.66,1.17-.66,1.97v1.01h-3.38l-1.4,13.16,8.5,3.62,8.5-3.62s-1.4-13.16-1.4-13.16ZM51.33,30.24h-.02l-8.16-3.48h-.03v-.04l1.34-12.64v-.03h3.41v-1.29c0-.73.21-1.34.6-1.79.41-.47,1.03-.7,1.78-.7h4.02v3.06h1.07v.71h2.85v.03l1.34,12.64v.03h-.02s-8.16,3.49-8.16,3.49Z"/>
      <polygon class="st1" points="55.32 15.5 55.29 15.5 54.26 15.5 54.26 17.44 55.29 17.44 55.32 17.44 55.32 17.48 55.32 17.94 58.08 17.94 57.72 14.55 55.32 14.55 55.32 15.46 55.32 15.5"/>
      <polygon class="st1" points="44.9 14.55 44.55 17.94 47.86 17.94 47.86 14.55 44.9 14.55"/>
      <path class="st1" d="M58.13,18.4h-2.8v1.18h-1.07v1.64h-3.32v-2.83h-1.25v.31c0,1.62-1.51,2.47-3,2.47h-.15v-1.75h.1c.7,0,1.23-.37,1.23-.86v-.17h-3.37l-.86,8.05,7.68,3.27,7.68-3.27-.86-8.05h-.01Z"/>
      <rect class="st0" x="49.68" y="14.55" width="1.25" height="3.39"/>
      <path class="st1" d="M50.52,11.85c-.41,0-.84.29-.84.93v1.28h1.25v-2.21h-.4ZM50.65,13.77h-.69v-1c0-.49.3-.66.56-.66h.13v1.65h0Z"/>
    </g>
    <g>
      <path class="st0" d="M47.71,23.69v.22h.54v1.83h.28v-2.52h-.22c-.04.39-.24.47-.6.47h-.01Z"/>
      <path class="st0" d="M49.95,23.23c-.38,0-.67.35-.67.88,0,.41.19.77.65.77.18,0,.37-.1.47-.31h0c-.01.27,0,.97-.43.97-.24,0-.34-.12-.34-.35h-.28c0,.36.22.6.58.6.73,0,.75-.88.75-1.4s-.05-1.17-.73-1.17h0ZM49.97,24.62c-.32,0-.39-.3-.39-.56s.08-.57.39-.57c.34,0,.41.36.41.62s-.1.52-.41.52Z"/>
      <path class="st0" d="M52.05,24.09c-.17,0-.29.06-.4.18l.11-.75h.84v-.25h-1.07l-.15,1.3h.25c.06-.15.18-.23.36-.23.36,0,.42.3.42.6,0,.31-.11.61-.4.61s-.39-.18-.37-.45h-.29c-.02.44.22.7.67.7.52,0,.68-.45.68-.9,0-.41-.17-.8-.64-.8h-.01Z"/>
      <path class="st0" d="M54.28,24.86v-1.64h-.26l-.94,1.64v.26h.92v.63h.28v-.63h.23v-.25h-.23,0ZM54,24.86h-.69l.69-1.2v1.2Z"/>
    </g>
  </g>
</svg>