<?xml version="1.0" encoding="UTF-8"?>
<svg id="_레이어_1" xmlns="http://www.w3.org/2000/svg" version="1.1" viewBox="0 0 200 40">
  <!-- Generator: Adobe Illustrator 29.7.1, SVG Export Plug-In . SVG Version: 2.1.1 Build 8)  -->
  <defs>
    <style>
      .st0 {
        fill: #fff;
      }
    </style>
  </defs>
  <g>
    <path class="st0" d="M5.69,36.71c-.86,0-1.68-.09-2.47-.26-.79-.17-1.46-.5-2.02-.97-.56-.48-.97-1.14-1.22-1.98-.26-.85-.27-1.95-.04-3.33L3.39,10.59c.98,0,1.86.16,2.65.47.79.31,1.45.76,1.97,1.34.52.58.89,1.27,1.1,2.06.21.79.22,1.65.03,2.58l-3.45,19.67Z"/>
    <path class="st0" d="M18.39,36.71c-.85,0-1.68-.09-2.47-.26-.79-.17-1.46-.5-2.02-.97-.55-.48-.97-1.14-1.22-1.98-.25-.85-.27-1.95-.04-3.33l3.45-19.57c.98,0,1.86.16,2.65.47.79.31,1.44.76,1.97,1.34.52.58.89,1.27,1.1,2.06.21.79.22,1.65.03,2.58l-3.45,19.67Z"/>
    <path class="st0" d="M77.43,20.34c-.35,1.93-.87,3.52-1.57,4.79-.7,1.26-1.59,2.28-2.68,3.03-1.09.76-2.39,1.29-3.9,1.6-1.51.31-3.25.47-5.22.47h-3.94c-1.28,0-2.64-.09-4.08-.28-.19.98-.48,1.88-.87,2.72-.39.84-.92,1.55-1.58,2.14-.66.59-1.48,1.06-2.45,1.39-.97.34-2.15.51-3.52.51l2.86-16.37c.32-1.81.82-3.34,1.5-4.58.67-1.24,1.55-2.25,2.63-3.01,1.08-.77,2.38-1.32,3.92-1.65,1.53-.34,3.33-.51,5.4-.51h3.62c1.9,0,3.56.15,4.96.45,1.4.3,2.52.82,3.36,1.55.84.73,1.4,1.72,1.67,2.98.28,1.25.24,2.84-.1,4.77M57.58,21.53c.02.49.16.9.4,1.25.24.35.54.63.9.83.36.21.77.37,1.22.47.45.11.89.16,1.3.16h3.79c.44,0,.91-.05,1.4-.16.49-.1.95-.26,1.39-.47.44-.21.84-.49,1.18-.83.35-.35.62-.77.8-1.25.28-.72.42-1.46.42-2.23,0-.49-.13-.91-.37-1.25-.24-.35-.55-.63-.92-.84-.37-.21-.78-.36-1.24-.47-.45-.1-.9-.16-1.34-.16h-3.8c-.42,0-.87.05-1.36.16-.48.1-.95.26-1.37.47-.43.21-.83.49-1.18.84-.36.35-.64.77-.82,1.25-.14.33-.24.7-.31,1.11-.07.42-.11.79-.11,1.11"/>
    <path class="st0" d="M27.34,13.57l-.35-.02.61-2.63c-.43-.01-.8-.03-1.11-.05l-1.11,4.77c4.33.3,20.95.55,25.47-6.05-4.99,3.54-14.16,4.1-19.47,4.1-2.27,0-3.83-.1-4.05-.12"/>
    <path class="st0" d="M53.89,2.68c-.42.7-1.02,1.32-1.73,1.87-.18.14-.36.27-.55.4-6.35,4.22-20.58,3.77-22.67,3.68l-.49,2.12-.48,2.06c6.43.4,18.94-.13,23.84-4.77.17-.16.33-.32.48-.49,1.21-1.37,1.75-3,1.6-4.87"/>
    <path class="st0" d="M40.48,16.74l-3.36,19.97h-6.9l3.45-19.36c2.14-.09,4.48-.28,6.8-.62h0Z"/>
  </g>
  <g>
    <g>
      <path class="st0" d="M94.83,12.17v.17c0,1.64.93,3.18,2.86,3.65l-.39.72c-.21.39-.68.35-.94.25-.87-.32-2.04-1.12-2.42-2.17-.44,1.17-1.74,2.12-2.54,2.39-.31.1-.74.15-.99-.33l-.37-.72c1.75-.43,2.87-1.89,2.87-3.79v-.17h-2.36v-1.12h6.66v1.12h-2.39ZM98.16,17.84c.65-.28.64-.85.64-1.44v-1.99h-2.32v-1.12h2.32v-2.67h1.82v5.83c0,1.03-.54,1.68-1.25,1.99.62.47,1.03,1.17,1.03,2.01,0,1.39-1.18,2.78-3.5,2.79-1.85.01-3.51-.94-3.48-2.79.03-1.92,1.78-2.78,3.5-2.78.43,0,.86.06,1.25.17ZM95.24,20.45c0,.86.57,1.65,1.67,1.65s1.68-.72,1.68-1.65c0-1.08-.72-1.64-1.67-1.64-1.08,0-1.68.76-1.68,1.64Z"/>
      <path class="st0" d="M109.45,16.87v2.07h4.86v1.12h-11.26v-1.12h4.55v-2.07h-1.69c-1.03,0-1.47-.54-1.47-1.35v-4.48h1.83v1.79h4.54v-1.79h1.82v4.78c0,.78-.17,1.06-1,1.06h-2.18ZM106.27,13.96v1.33c0,.31.14.46.49.46h4.05v-1.79h-4.54Z"/>
      <path class="st0" d="M125.13,15.54h-3.07v1.04h4.75v1.1h-11.27v-1.1h4.68v-1.04h-1.94c-.79,0-1.33-.57-1.33-1.35v-3.42h8.05v1.1h-6.22v.67h6.22v1.1h-6.22v.25c0,.36.17.56.6.56h5.76v1.1ZM124.63,20.73c0,1.67-1.54,2.5-3.39,2.5s-3.39-.83-3.39-2.5,1.56-2.51,3.39-2.51,3.39.85,3.39,2.51ZM119.67,20.73c0,.83.61,1.4,1.57,1.4s1.57-.57,1.57-1.4-.57-1.39-1.57-1.39-1.57.56-1.57,1.39Z"/>
      <path class="st0" d="M132.25,11.11v1.35c0,1.64.99,3.35,2.9,3.82l-.42.72c-.26.49-.74.29-.99.21-.82-.29-1.96-1.26-2.37-2.25-.36,1.01-1.74,2.22-2.53,2.47-.31.1-.75.22-1-.26l-.37-.69c1.72-.54,2.89-2.1,2.89-4.01v-1.35h1.89ZM131.75,21.29c0,.26.14.39.39.39h6.09v1.14h-6.83c-.78,0-1.49-.35-1.49-1.49v-2.68h1.83v2.64ZM138.11,10.62v7.86c0,.46-.22.85-.81.85h-1.29c.14-.1.25-.25.25-.56v-8.15h1.85Z"/>
      <path class="st0" d="M144.98,12.71c0-.15-.04-.35-.36-.35h-3.68v-1.11h4.47c1.1,0,1.36.56,1.36,1.28v.71c0,1.6-.51,2.87-1.42,3.93-.85.97-1.89,1.69-3.3,2.22-.42.15-.65.03-.82-.33l-.31-.64c1.5-.64,2.46-1.33,3.12-2.22.82-1.08.97-2.35.93-3.48ZM150.61,20.58c0,.46-.24.85-.82.85h-1.28c.15-.1.25-.25.25-.56v-10.09h1.85v9.8Z"/>
      <path class="st0" d="M159.21,13.04c.24.32.37.69.37,1.15,0,1.12-.85,1.8-1.89,2.07v.69h1.71c.97,0,1.61-.17,2-.44v-5.87h1.82v7.12c0,.46-.22.99-.81.99h-1.26c.15-.1.25-.39.25-.69v-.42c-.54.32-1.26.44-1.94.44h-6.62v-1.12h3.07v-.67c-1.08-.24-2.01-.93-2.01-2.1,0-.46.14-.83.38-1.15h-1.22v-1.15h2.89v-1.68h1.85v.57c0,.54-.18.93-.65,1.11h3.4v1.15h-1.32ZM163.12,22.12c0,.46-.24.85-.82.85h-1.26c.15-.1.25-.25.25-.56v-2.14h-6.65v-1.12h7.71c.56,0,.78.22.78.75v2.22ZM156.73,15.29c.69,0,1.1-.43,1.1-1.1,0-.72-.4-1.12-1.08-1.12s-1.08.4-1.08,1.1.42,1.12,1.07,1.12Z"/>
      <path class="st0" d="M172.57,16.59c-.39.18-.92.29-1.53.29h-5.79v-1.11h1.55c-.32-.08-.49-.29-.49-.72v-2.89h-1.07v-1.12h7.04v1.12h-1.18v2.76c0,.53-.12.71-.46.85h.44c.44,0,.99-.1,1.47-.31v1.12ZM169.38,12.17h-1.32v2.98c0,.36.07.62.42.62h.49c.33,0,.42-.25.42-.57v-3.04ZM173.14,17.84c.65-.28.64-.85.64-1.44v-1.17c-.22.07-.51.11-.74.11h-.94v-1.11h1.22c.17,0,.33-.01.46-.07v-.62c-.14-.04-.32-.07-.49-.07h-1.21v-1.11h.97c.19,0,.5.03.72.11v-1.85h1.82v5.83c0,1.03-.54,1.68-1.25,1.99.62.47,1.03,1.17,1.03,2.01,0,1.39-1.18,2.78-3.5,2.79-1.85.01-3.51-.94-3.49-2.79.03-1.92,1.78-2.78,3.5-2.78.43,0,.86.06,1.25.17ZM170.21,20.45c0,.86.57,1.65,1.67,1.65s1.68-.72,1.68-1.65c0-1.08-.72-1.64-1.67-1.64-1.08,0-1.68.76-1.68,1.64Z"/>
      <path class="st0" d="M182.36,12.71c0-.15-.04-.35-.36-.35h-3.68v-1.11h4.47c1.1,0,1.36.56,1.36,1.28v.71c0,1.6-.51,2.87-1.42,3.93-.85.97-1.89,1.69-3.3,2.22-.42.15-.65.03-.82-.33l-.31-.64c1.5-.64,2.46-1.33,3.12-2.22.82-1.08.97-2.35.93-3.48ZM187.7,14.8c.14-.12.35-.33.93-.33h1.1v1.12h-2.03v4.97c0,.46-.22.85-.81.85h-1.28c.15-.1.25-.25.25-.56v-10.08h1.83v4.03Z"/>
      <path class="st0" d="M190.26,17.07v-1.12h5.05c.71,0,1.94.01,2.87-.43v1.17c-.68.33-2.04.39-2.85.39h-.79v1c0,.46-.24.85-.82.85h-1.28c.15-.1.25-.25.25-.56v-1.29h-2.44ZM197.19,12.97c0,1.46-1.36,2.39-3.17,2.39s-3.14-.93-3.14-2.39,1.37-2.39,3.14-2.39,3.17.94,3.17,2.39ZM194.09,21.29c0,.26.14.39.39.39h6.37v1.14h-7.11c-.78,0-1.49-.35-1.49-1.49v-1.8h1.83v1.76ZM194.02,14.22c.85,0,1.39-.49,1.39-1.25s-.54-1.25-1.37-1.25c-.78,0-1.35.5-1.35,1.22,0,.76.56,1.28,1.33,1.28ZM196.45,17.76h2.43v-7.14h1.85v8.55c0,.46-.24.85-.82.85h-1.28c.15-.1.25-.25.25-.56v-.61h-2.43v-1.1Z"/>
    </g>
    <g>
      <path class="st0" d="M90.4,26.59h.51v3.58h-.51v-3.58Z"/>
      <path class="st0" d="M94.18,27.73c.2.2.3.49.3.88v1.56h-.49v-1.5c0-.26-.06-.46-.19-.59-.13-.13-.31-.2-.54-.2-.27,0-.48.08-.63.23-.15.15-.23.38-.23.67v1.39h-.49v-2.71h.47v.41c.1-.14.23-.25.4-.32.17-.07.36-.11.57-.11.34,0,.62.1.82.3Z"/>
      <path class="st0" d="M95.53,30.11c-.2-.06-.36-.14-.48-.23l.2-.39c.12.09.26.15.43.2.17.05.34.08.52.08.43,0,.64-.12.64-.37,0-.08-.03-.15-.09-.19-.06-.05-.13-.08-.22-.1-.09-.02-.21-.05-.37-.07-.22-.03-.4-.07-.53-.12-.14-.04-.26-.12-.36-.22-.1-.11-.15-.25-.15-.44,0-.25.1-.44.31-.59.2-.15.48-.22.82-.22.18,0,.36.02.54.07.18.04.33.1.44.18l-.21.39c-.22-.14-.48-.21-.78-.21-.21,0-.37.03-.48.1-.11.07-.16.16-.16.27,0,.09.03.16.09.21.06.05.14.09.23.11.09.02.22.05.38.08.22.04.39.08.53.12.13.04.25.12.34.22.1.1.14.25.14.43,0,.25-.1.44-.31.59-.21.14-.49.22-.86.22-.22,0-.43-.03-.64-.09Z"/>
      <path class="st0" d="M99.47,30.01c-.07.06-.16.11-.27.14-.11.03-.21.05-.33.05-.27,0-.48-.07-.63-.22-.15-.15-.22-.36-.22-.63v-1.49h-.46v-.4h.46v-.59h.49v.59h.78v.4h-.78v1.47c0,.15.04.26.11.34.07.08.18.12.31.12.15,0,.28-.04.38-.13l.15.35Z"/>
      <path class="st0" d="M100.07,26.85c-.06-.06-.09-.14-.09-.22s.03-.16.09-.23c.06-.06.14-.09.24-.09s.17.03.24.09c.06.06.09.13.09.22s-.03.17-.09.23c-.06.06-.14.09-.24.09s-.17-.03-.24-.09ZM100.07,27.46h.49v2.71h-.49v-2.71Z"/>
      <path class="st0" d="M103.01,30.01c-.07.06-.16.11-.27.14-.11.03-.21.05-.33.05-.27,0-.48-.07-.63-.22-.15-.15-.22-.36-.22-.63v-1.49h-.46v-.4h.46v-.59h.49v.59h.78v.4h-.78v1.47c0,.15.04.26.11.34.07.08.18.12.31.12.15,0,.28-.04.38-.13l.15.35Z"/>
      <path class="st0" d="M106.13,27.46v2.71h-.46v-.41c-.1.14-.23.25-.39.32-.16.08-.34.12-.53.12-.36,0-.65-.1-.85-.3-.21-.2-.31-.49-.31-.88v-1.56h.49v1.5c0,.26.06.46.19.6.13.13.31.2.54.2.26,0,.46-.08.61-.24.15-.16.22-.38.22-.66v-1.4h.49Z"/>
      <path class="st0" d="M108.59,30.01c-.07.06-.16.11-.27.14-.11.03-.21.05-.33.05-.27,0-.48-.07-.63-.22-.15-.15-.22-.36-.22-.63v-1.49h-.46v-.4h.46v-.59h.49v.59h.78v.4h-.78v1.47c0,.15.04.26.11.34.07.08.18.12.31.12.15,0,.28-.04.38-.13l.15.35Z"/>
      <path class="st0" d="M111.53,28.98h-2.2c.03.24.14.43.31.57.18.14.4.22.67.22.32,0,.58-.11.78-.33l.27.32c-.12.14-.28.25-.46.33-.18.07-.39.11-.61.11-.29,0-.54-.06-.76-.18-.22-.12-.39-.28-.51-.49-.12-.21-.18-.45-.18-.72s.06-.5.18-.71c.12-.21.28-.38.49-.49.21-.12.44-.18.7-.18s.49.06.69.18c.2.12.36.28.48.49.11.21.17.45.17.73,0,.04,0,.09-.01.15ZM109.61,28.06c-.16.14-.25.33-.28.56h1.74c-.03-.23-.12-.41-.28-.56-.16-.14-.36-.22-.59-.22s-.43.07-.59.21Z"/>
      <path class="st0" d="M114.02,30.02c-.21-.12-.38-.28-.5-.49-.12-.21-.18-.45-.18-.71s.06-.5.18-.71c.12-.21.29-.37.5-.49.21-.12.46-.18.73-.18s.51.06.72.18c.21.12.38.28.5.49.12.21.18.45.18.71s-.06.5-.18.71c-.12.21-.29.37-.5.49-.21.12-.45.18-.72.18s-.51-.06-.73-.18ZM115.22,29.65c.14-.08.25-.19.32-.34.08-.14.12-.31.12-.5s-.04-.35-.12-.5c-.08-.14-.19-.26-.32-.33s-.29-.12-.47-.12-.33.04-.47.12c-.14.08-.25.19-.33.33-.08.14-.12.31-.12.5s.04.35.12.5c.08.14.19.26.33.34.14.08.29.12.47.12s.33-.04.47-.12Z"/>
      <path class="st0" d="M117.39,27.23v.24h.79v.4h-.78v2.3h-.49v-2.3h-.46v-.4h.46v-.24c0-.27.08-.48.24-.64.16-.16.38-.23.66-.23.11,0,.21.01.31.04.1.03.18.07.25.12l-.15.37c-.11-.09-.24-.13-.38-.13-.29,0-.44.16-.44.47Z"/>
      <path class="st0" d="M120.08,26.59h.51v3.58h-.51v-3.58Z"/>
      <path class="st0" d="M123.86,27.73c.2.2.3.49.3.88v1.56h-.49v-1.5c0-.26-.06-.46-.19-.59-.13-.13-.31-.2-.54-.2-.27,0-.48.08-.63.23-.15.15-.23.38-.23.67v1.39h-.49v-2.71h.47v.41c.1-.14.23-.25.4-.32.17-.07.36-.11.58-.11.34,0,.62.1.82.3Z"/>
      <path class="st0" d="M125.63,27.23v.24h.79v.4h-.78v2.3h-.49v-2.3h-.46v-.4h.46v-.24c0-.27.08-.48.24-.64.16-.16.38-.23.66-.23.11,0,.21.01.31.04.1.03.18.07.25.12l-.15.37c-.11-.09-.24-.13-.38-.13-.29,0-.44.16-.44.47Z"/>
      <path class="st0" d="M127.27,30.02c-.21-.12-.38-.28-.5-.49-.12-.21-.18-.45-.18-.71s.06-.5.18-.71c.12-.21.29-.37.5-.49.21-.12.46-.18.73-.18s.51.06.72.18c.21.12.38.28.5.49.12.21.18.45.18.71s-.06.5-.18.71c-.12.21-.29.37-.5.49-.21.12-.45.18-.72.18s-.51-.06-.73-.18ZM128.47,29.65c.14-.08.25-.19.32-.34.08-.14.12-.31.12-.5s-.04-.35-.12-.5c-.08-.14-.19-.26-.32-.33-.14-.08-.29-.12-.47-.12s-.33.04-.47.12c-.14.08-.25.19-.33.33-.08.14-.12.31-.12.5s.04.35.12.5c.08.14.19.26.33.34.14.08.29.12.47.12s.33-.04.47-.12Z"/>
      <path class="st0" d="M130.93,27.56c.17-.08.37-.12.61-.12v.48s-.06,0-.11,0c-.27,0-.47.08-.63.24-.15.16-.23.38-.23.68v1.35h-.49v-2.71h.47v.45c.09-.16.21-.28.38-.36Z"/>
      <path class="st0" d="M136.34,27.73c.2.2.3.49.3.88v1.56h-.49v-1.5c0-.26-.06-.46-.18-.59-.12-.13-.29-.2-.52-.2-.25,0-.45.08-.59.23-.15.15-.22.38-.22.67v1.39h-.49v-1.5c0-.26-.06-.46-.18-.59-.12-.13-.29-.2-.52-.2-.25,0-.45.08-.59.23-.15.15-.22.38-.22.67v1.39h-.49v-2.71h.47v.4c.1-.14.23-.25.39-.32.16-.07.34-.11.55-.11s.4.04.56.13c.16.09.29.21.38.37.1-.16.24-.28.43-.37.18-.09.39-.13.62-.13.34,0,.61.1.81.3Z"/>
      <path class="st0" d="M139.39,27.71c.2.18.3.46.3.82v1.63h-.46v-.36c-.08.13-.2.22-.35.29-.15.07-.33.1-.54.1-.3,0-.55-.07-.73-.22-.18-.15-.27-.34-.27-.58s.09-.43.26-.58c.17-.14.45-.22.83-.22h.78v-.1c0-.21-.06-.37-.18-.49-.12-.11-.3-.17-.54-.17-.16,0-.32.03-.47.08-.15.05-.28.12-.39.21l-.2-.37c.14-.11.31-.2.5-.26.19-.06.4-.09.62-.09.37,0,.66.09.86.28ZM138.9,29.7c.14-.08.24-.2.3-.35v-.38h-.76c-.42,0-.62.14-.62.42,0,.14.05.24.16.32.11.08.25.12.44.12s.35-.04.49-.13Z"/>
      <path class="st0" d="M142.12,30.01c-.07.06-.16.11-.27.14-.11.03-.21.05-.33.05-.27,0-.48-.07-.63-.22-.15-.15-.22-.36-.22-.63v-1.49h-.46v-.4h.46v-.59h.49v.59h.78v.4h-.78v1.47c0,.15.04.26.11.34.07.08.18.12.31.12.15,0,.28-.04.38-.13l.15.35Z"/>
      <path class="st0" d="M142.72,26.85c-.06-.06-.09-.14-.09-.22s.03-.16.09-.23c.06-.06.14-.09.24-.09s.17.03.24.09c.06.06.09.13.09.22s-.03.17-.09.23c-.06.06-.14.09-.24.09s-.17-.03-.24-.09ZM142.71,27.46h.49v2.71h-.49v-2.71Z"/>
      <path class="st0" d="M144.57,30.02c-.21-.12-.38-.28-.5-.49-.12-.21-.18-.45-.18-.71s.06-.5.18-.71c.12-.21.29-.37.5-.49s.46-.18.73-.18.51.06.72.18c.21.12.38.28.5.49.12.21.18.45.18.71s-.06.5-.18.71c-.12.21-.29.37-.5.49-.21.12-.45.18-.72.18s-.51-.06-.73-.18ZM145.77,29.65c.14-.08.25-.19.32-.34.08-.14.12-.31.12-.5s-.04-.35-.12-.5c-.08-.14-.19-.26-.32-.33-.14-.08-.29-.12-.47-.12s-.33.04-.47.12c-.14.08-.25.19-.33.33-.08.14-.12.31-.12.5s.04.35.12.5c.08.14.19.26.33.34.14.08.29.12.47.12s.33-.04.47-.12Z"/>
      <path class="st0" d="M149.65,27.73c.2.2.3.49.3.88v1.56h-.49v-1.5c0-.26-.06-.46-.19-.59-.13-.13-.31-.2-.54-.2-.27,0-.48.08-.63.23-.15.15-.23.38-.23.67v1.39h-.49v-2.71h.47v.41c.1-.14.23-.25.4-.32.17-.07.36-.11.58-.11.34,0,.62.1.82.3Z"/>
      <path class="st0" d="M154.92,30.23l-.48-.48c-.32.31-.72.46-1.2.46-.24,0-.45-.04-.64-.12-.19-.08-.34-.19-.45-.33-.11-.14-.16-.3-.16-.48,0-.22.07-.41.2-.58.13-.17.36-.34.67-.52-.16-.16-.27-.3-.33-.42-.06-.13-.1-.26-.1-.39,0-.24.09-.44.26-.58.18-.15.41-.22.7-.22.27,0,.49.07.65.2.16.13.24.32.24.55,0,.18-.06.34-.18.49-.12.14-.31.29-.59.45l.88.88c.1-.19.18-.41.22-.65l.39.13c-.06.31-.17.59-.31.82l.48.48-.28.33ZM154.16,29.46l-1.02-1.01c-.25.14-.42.26-.51.38-.1.12-.15.25-.15.4,0,.17.07.31.22.41.15.11.34.16.58.16.35,0,.65-.11.87-.34ZM153.03,27.04c-.09.08-.14.18-.14.31,0,.09.02.18.07.27s.15.2.29.35c.24-.13.4-.25.49-.34.09-.1.14-.2.14-.31,0-.12-.04-.21-.13-.29-.08-.07-.2-.11-.35-.11-.16,0-.29.04-.38.12Z"/>
      <path class="st0" d="M157.82,29.97c-.29-.16-.51-.38-.68-.65-.16-.28-.25-.59-.25-.94s.08-.66.25-.94c.16-.28.39-.5.68-.65.29-.16.61-.24.97-.24.28,0,.53.05.77.14.23.09.43.23.59.42l-.33.32c-.27-.28-.6-.42-1.01-.42-.27,0-.51.06-.72.18-.21.12-.38.28-.5.49-.12.21-.18.44-.18.7s.06.49.18.7c.12.21.29.37.5.49.21.12.46.18.72.18.4,0,.73-.14,1.01-.43l.33.32c-.16.18-.36.32-.6.42-.23.1-.49.14-.77.14-.36,0-.68-.08-.97-.24Z"/>
      <path class="st0" d="M161.13,30.02c-.21-.12-.38-.28-.5-.49-.12-.21-.18-.45-.18-.71s.06-.5.18-.71c.12-.21.29-.37.5-.49.21-.12.46-.18.73-.18s.51.06.72.18.38.28.5.49.18.45.18.71-.06.5-.18.71-.29.37-.5.49c-.21.12-.45.18-.72.18s-.51-.06-.73-.18ZM162.33,29.65c.14-.08.25-.19.32-.34.08-.14.12-.31.12-.5s-.04-.35-.12-.5c-.08-.14-.19-.26-.32-.33-.14-.08-.29-.12-.47-.12s-.33.04-.47.12c-.14.08-.25.19-.33.33-.08.14-.12.31-.12.5s.04.35.12.5c.08.14.19.26.33.34.14.08.29.12.47.12s.33-.04.47-.12Z"/>
      <path class="st0" d="M168.14,27.73c.2.2.3.49.3.88v1.56h-.49v-1.5c0-.26-.06-.46-.18-.59-.12-.13-.29-.2-.52-.2-.25,0-.45.08-.59.23-.15.15-.22.38-.22.67v1.39h-.49v-1.5c0-.26-.06-.46-.18-.59-.12-.13-.29-.2-.52-.2-.25,0-.45.08-.59.23-.15.15-.22.38-.22.67v1.39h-.49v-2.71h.47v.4c.1-.14.23-.25.39-.32.16-.07.34-.11.55-.11s.4.04.56.13c.16.09.29.21.38.37.1-.16.24-.28.43-.37.18-.09.39-.13.62-.13.34,0,.61.1.81.3Z"/>
      <path class="st0" d="M173.54,27.73c.2.2.3.49.3.88v1.56h-.49v-1.5c0-.26-.06-.46-.18-.59-.12-.13-.29-.2-.52-.2-.25,0-.45.08-.59.23-.15.15-.22.38-.22.67v1.39h-.49v-1.5c0-.26-.06-.46-.18-.59-.12-.13-.29-.2-.52-.2-.25,0-.45.08-.59.23-.15.15-.22.38-.22.67v1.39h-.49v-2.71h.47v.4c.1-.14.23-.25.39-.32.16-.07.34-.11.55-.11s.4.04.56.13c.16.09.29.21.38.37.1-.16.24-.28.43-.37.18-.09.39-.13.62-.13.34,0,.61.1.81.3Z"/>
      <path class="st0" d="M177.27,27.46v2.71h-.47v-.41c-.1.14-.23.25-.39.32-.16.08-.34.12-.53.12-.36,0-.65-.1-.85-.3-.21-.2-.31-.49-.31-.88v-1.56h.49v1.5c0,.26.06.46.19.6.13.13.31.2.54.2.26,0,.46-.08.61-.24.15-.16.22-.38.22-.66v-1.4h.49Z"/>
      <path class="st0" d="M180.47,27.73c.2.2.3.49.3.88v1.56h-.49v-1.5c0-.26-.06-.46-.19-.59-.13-.13-.31-.2-.54-.2-.27,0-.48.08-.63.23-.15.15-.23.38-.23.67v1.39h-.49v-2.71h.47v.41c.1-.14.23-.25.4-.32.17-.07.36-.11.58-.11.34,0,.62.1.82.3Z"/>
      <path class="st0" d="M181.69,26.85c-.06-.06-.09-.14-.09-.22s.03-.16.09-.23c.06-.06.14-.09.24-.09s.17.03.24.09c.06.06.09.13.09.22s-.03.17-.09.23c-.06.06-.14.09-.24.09s-.17-.03-.24-.09ZM181.68,27.46h.49v2.71h-.49v-2.71Z"/>
      <path class="st0" d="M183.55,30.02c-.22-.12-.39-.28-.51-.49s-.18-.45-.18-.71.06-.5.18-.71.29-.37.51-.49c.22-.12.46-.18.74-.18.25,0,.46.05.66.15.19.1.34.24.45.43l-.37.24c-.08-.13-.19-.23-.32-.29-.13-.06-.27-.1-.42-.1-.18,0-.34.04-.48.12-.14.08-.25.19-.33.33-.08.14-.12.31-.12.5s.04.36.12.5c.08.14.19.26.33.33.14.08.3.12.48.12.15,0,.29-.03.42-.1.13-.06.23-.16.32-.29l.37.24c-.11.19-.26.33-.45.43s-.41.15-.66.15c-.28,0-.52-.06-.74-.18Z"/>
      <path class="st0" d="M187.87,27.71c.2.18.3.46.3.82v1.63h-.46v-.36c-.08.13-.2.22-.35.29-.15.07-.33.1-.54.1-.3,0-.55-.07-.73-.22-.18-.15-.27-.34-.27-.58s.09-.43.26-.58c.17-.14.45-.22.83-.22h.78v-.1c0-.21-.06-.37-.18-.49-.12-.11-.3-.17-.54-.17-.16,0-.32.03-.47.08-.15.05-.28.12-.39.21l-.2-.37c.14-.11.31-.2.5-.26.19-.06.4-.09.62-.09.37,0,.66.09.86.28ZM187.38,29.7c.14-.08.24-.2.3-.35v-.38h-.76c-.42,0-.62.14-.62.42,0,.14.05.24.16.32.11.08.25.12.44.12s.35-.04.49-.13Z"/>
      <path class="st0" d="M190.6,30.01c-.07.06-.16.11-.27.14-.11.03-.22.05-.33.05-.27,0-.48-.07-.63-.22-.15-.15-.22-.36-.22-.63v-1.49h-.46v-.4h.46v-.59h.49v.59h.78v.4h-.78v1.47c0,.15.04.26.11.34.07.08.18.12.31.12.15,0,.28-.04.38-.13l.15.35Z"/>
      <path class="st0" d="M191.2,26.85c-.06-.06-.09-.14-.09-.22s.03-.16.09-.23c.06-.06.14-.09.24-.09s.17.03.24.09c.06.06.09.13.09.22s-.03.17-.09.23c-.06.06-.14.09-.24.09s-.17-.03-.24-.09ZM191.2,27.46h.49v2.71h-.49v-2.71Z"/>
      <path class="st0" d="M193.06,30.02c-.21-.12-.38-.28-.5-.49-.12-.21-.18-.45-.18-.71s.06-.5.18-.71c.12-.21.29-.37.5-.49.21-.12.46-.18.73-.18s.51.06.72.18.38.28.5.49c.12.21.18.45.18.71s-.06.5-.18.71c-.12.21-.29.37-.5.49-.21.12-.45.18-.72.18s-.51-.06-.73-.18ZM194.25,29.65c.14-.08.25-.19.32-.34.08-.14.12-.31.12-.5s-.04-.35-.12-.5c-.08-.14-.19-.26-.32-.33-.14-.08-.29-.12-.47-.12s-.33.04-.47.12c-.14.08-.25.19-.33.33-.08.14-.12.31-.12.5s.04.35.12.5c.08.14.19.26.33.34.14.08.29.12.47.12s.33-.04.47-.12Z"/>
      <path class="st0" d="M198.13,27.73c.2.2.3.49.3.88v1.56h-.49v-1.5c0-.26-.06-.46-.19-.59-.13-.13-.31-.2-.54-.2-.27,0-.48.08-.63.23-.15.15-.23.38-.23.67v1.39h-.49v-2.71h.47v.41c.1-.14.23-.25.4-.32.17-.07.36-.11.58-.11.34,0,.62.1.82.3Z"/>
      <path class="st0" d="M199.48,30.11c-.2-.06-.36-.14-.48-.23l.2-.39c.12.09.26.15.43.2.17.05.34.08.52.08.43,0,.64-.12.64-.37,0-.08-.03-.15-.09-.19-.06-.05-.13-.08-.22-.1-.09-.02-.21-.05-.37-.07-.22-.03-.4-.07-.53-.12-.14-.04-.26-.12-.35-.22-.1-.11-.15-.25-.15-.44,0-.25.1-.44.31-.59.2-.15.48-.22.82-.22.18,0,.36.02.54.07.18.04.33.1.44.18l-.21.39c-.22-.14-.48-.21-.78-.21-.21,0-.37.03-.48.1-.11.07-.16.16-.16.27,0,.09.03.16.09.21.06.05.14.09.23.11.09.02.22.05.38.08.22.04.39.08.53.12.13.04.25.12.34.22.1.1.14.25.14.43,0,.25-.1.44-.31.59-.21.14-.5.22-.86.22-.22,0-.43-.03-.64-.09Z"/>
      <path class="st0" d="M91.11,33.17h-1.23v-.44h2.96v.44h-1.23v3.13h-.51v-3.13Z"/>
      <path class="st0" d="M95.48,35.11h-2.2c.03.24.14.43.31.58.18.14.4.22.67.22.32,0,.58-.11.78-.33l.27.32c-.12.14-.27.25-.46.33-.18.07-.39.11-.61.11-.29,0-.54-.06-.76-.18-.22-.12-.39-.28-.51-.49-.12-.21-.18-.45-.18-.72s.06-.5.18-.71c.12-.21.28-.38.49-.49.21-.12.44-.18.7-.18s.49.06.69.18c.2.12.36.28.48.49.11.21.17.45.17.73,0,.04,0,.09-.01.15ZM93.56,34.2c-.16.14-.25.33-.28.56h1.74c-.03-.23-.12-.41-.28-.56-.16-.15-.36-.22-.59-.22s-.43.07-.59.21Z"/>
      <path class="st0" d="M96.61,36.15c-.22-.12-.39-.28-.51-.49-.12-.21-.18-.45-.18-.71s.06-.5.18-.71c.12-.21.29-.37.51-.49.22-.12.46-.18.74-.18.25,0,.46.05.66.15.19.1.34.24.45.43l-.37.24c-.09-.13-.19-.23-.32-.29-.13-.06-.27-.1-.42-.1-.18,0-.34.04-.48.12-.14.08-.25.19-.33.33-.08.15-.12.31-.12.5s.04.36.12.5c.08.14.19.26.33.33.14.08.3.12.48.12.15,0,.29-.03.42-.1.13-.06.23-.16.32-.29l.37.24c-.11.19-.25.33-.45.43-.19.1-.41.15-.66.15-.28,0-.52-.06-.74-.18Z"/>
      <path class="st0" d="M101.32,33.87c.2.2.3.49.3.88v1.56h-.49v-1.5c0-.26-.06-.46-.19-.59-.13-.13-.31-.2-.54-.2-.27,0-.48.08-.63.23-.15.15-.23.38-.23.67v1.39h-.49v-3.79h.49v1.47c.1-.13.24-.23.4-.3.16-.07.35-.11.55-.11.34,0,.62.1.82.3Z"/>
      <path class="st0" d="M104.8,33.87c.2.2.3.49.3.88v1.56h-.49v-1.5c0-.26-.06-.46-.19-.59-.13-.13-.31-.2-.54-.2-.27,0-.48.08-.63.23s-.23.38-.23.67v1.39h-.49v-2.71h.47v.41c.1-.14.23-.25.4-.32.17-.07.36-.11.58-.11.34,0,.62.1.82.3Z"/>
      <path class="st0" d="M106.46,36.15c-.21-.12-.38-.28-.5-.49-.12-.21-.18-.45-.18-.71s.06-.5.18-.71c.12-.21.29-.37.5-.49.21-.12.46-.18.73-.18s.51.06.72.18c.21.12.38.28.5.49.12.21.18.45.18.71s-.06.5-.18.71c-.12.21-.29.37-.5.49-.21.12-.45.18-.72.18s-.51-.06-.73-.18ZM107.66,35.78c.14-.08.25-.19.32-.34.08-.14.12-.31.12-.5s-.04-.35-.12-.5c-.08-.14-.19-.26-.32-.33-.14-.08-.29-.12-.47-.12s-.33.04-.47.12c-.14.08-.25.19-.33.33-.08.15-.12.31-.12.5s.04.35.12.5c.08.14.19.26.33.34.14.08.29.12.47.12s.33-.04.47-.12Z"/>
      <path class="st0" d="M109.27,32.51h.49v3.79h-.49v-3.79Z"/>
      <path class="st0" d="M111.13,36.15c-.21-.12-.38-.28-.5-.49-.12-.21-.18-.45-.18-.71s.06-.5.18-.71c.12-.21.29-.37.5-.49.21-.12.46-.18.73-.18s.51.06.72.18c.21.12.38.28.5.49.12.21.18.45.18.71s-.06.5-.18.71c-.12.21-.29.37-.5.49-.21.12-.45.18-.72.18s-.51-.06-.73-.18ZM112.33,35.78c.14-.08.25-.19.32-.34.08-.14.12-.31.12-.5s-.04-.35-.12-.5c-.08-.14-.19-.26-.32-.33-.14-.08-.29-.12-.47-.12s-.33.04-.47.12c-.14.08-.25.19-.33.33-.08.15-.12.31-.12.5s.04.35.12.5c.08.14.19.26.33.34.14.08.29.12.47.12s.33-.04.47-.12Z"/>
      <path class="st0" d="M116.53,33.59v2.34c0,.47-.12.82-.35,1.05-.24.23-.59.34-1.05.34-.26,0-.5-.03-.73-.1-.23-.07-.42-.17-.56-.3l.24-.38c.13.11.28.19.47.26.19.06.38.09.57.09.32,0,.55-.08.7-.22.15-.15.23-.38.23-.68v-.21c-.12.14-.26.24-.43.31-.17.07-.35.1-.55.1-.26,0-.49-.06-.7-.17-.21-.11-.37-.27-.49-.46-.12-.2-.18-.43-.18-.68s.06-.48.18-.68c.12-.2.28-.35.49-.46.21-.11.44-.16.7-.16.2,0,.39.04.57.11.18.07.32.19.43.33v-.42h.46ZM115.6,35.65c.14-.07.25-.18.33-.31.08-.13.12-.29.12-.46,0-.26-.09-.47-.26-.64-.17-.16-.4-.24-.67-.24s-.5.08-.67.24c-.17.16-.26.37-.26.64,0,.17.04.32.12.46.08.13.19.24.33.31.14.08.3.11.48.11s.34-.04.48-.11Z"/>
      <path class="st0" d="M119.86,33.59l-1.31,2.98c-.12.28-.25.47-.41.58-.15.11-.34.17-.56.17-.13,0-.26-.02-.39-.06-.12-.04-.23-.1-.31-.19l.21-.37c.14.13.3.2.49.2.12,0,.22-.03.3-.09.08-.06.15-.17.22-.32l.09-.19-1.2-2.7h.51l.95,2.17.93-2.17h.48Z"/>
      <path class="st0" d="M124.26,33.06c.27.22.4.53.4.91s-.13.69-.4.91c-.27.22-.63.33-1.09.33h-.88v1.08h-.51v-3.58h1.39c.46,0,.83.11,1.09.33ZM123.89,34.57c.17-.14.26-.34.26-.6s-.09-.46-.26-.6c-.17-.14-.42-.21-.74-.21h-.87v1.6h.87c.32,0,.57-.07.74-.21Z"/>
      <path class="st0" d="M125.39,32.51h.49v3.79h-.49v-3.79Z"/>
      <path class="st0" d="M128.66,33.84c.2.18.3.46.3.82v1.63h-.46v-.36c-.08.13-.2.22-.35.29-.15.07-.33.1-.54.1-.3,0-.55-.07-.73-.22-.18-.15-.27-.34-.27-.58s.09-.43.26-.58c.17-.14.45-.22.83-.22h.78v-.1c0-.21-.06-.37-.18-.49-.12-.11-.3-.17-.54-.17-.16,0-.32.03-.47.08-.15.05-.28.12-.39.21l-.2-.37c.14-.11.31-.2.5-.26.19-.06.4-.09.62-.09.37,0,.66.09.86.28ZM128.17,35.83c.14-.08.24-.2.3-.35v-.38h-.76c-.42,0-.62.14-.62.42,0,.14.05.24.16.32s.25.12.44.12.35-.04.49-.13Z"/>
      <path class="st0" d="M132.13,33.87c.2.2.3.49.3.88v1.56h-.49v-1.5c0-.26-.06-.46-.19-.59-.13-.13-.31-.2-.54-.2-.27,0-.48.08-.63.23-.15.15-.23.38-.23.67v1.39h-.49v-2.71h.47v.41c.1-.14.23-.25.4-.32.17-.07.36-.11.58-.11.34,0,.62.1.82.3Z"/>
      <path class="st0" d="M135.61,33.87c.2.2.3.49.3.88v1.56h-.49v-1.5c0-.26-.06-.46-.19-.59-.13-.13-.31-.2-.54-.2-.27,0-.48.08-.63.23-.15.15-.23.38-.23.67v1.39h-.49v-2.71h.47v.41c.1-.14.23-.25.4-.32.17-.07.36-.11.58-.11.34,0,.62.1.82.3Z"/>
      <path class="st0" d="M136.84,32.98c-.06-.06-.09-.14-.09-.22s.03-.16.09-.23c.06-.06.14-.09.24-.09s.17.03.24.09c.06.06.09.13.09.22s-.03.17-.09.23c-.06.06-.14.09-.24.09s-.17-.03-.24-.09ZM136.83,33.59h.49v2.71h-.49v-2.71Z"/>
      <path class="st0" d="M140.52,33.87c.2.2.3.49.3.88v1.56h-.49v-1.5c0-.26-.06-.46-.19-.59-.13-.13-.31-.2-.54-.2-.27,0-.48.08-.63.23s-.23.38-.23.67v1.39h-.49v-2.71h.47v.41c.1-.14.23-.25.4-.32.17-.07.36-.11.58-.11.34,0,.62.1.82.3Z"/>
      <path class="st0" d="M144.34,33.59v2.34c0,.47-.12.82-.35,1.05-.24.23-.59.34-1.05.34-.26,0-.5-.03-.73-.1-.23-.07-.42-.17-.56-.3l.24-.38c.13.11.28.19.47.26.19.06.38.09.57.09.32,0,.55-.08.7-.22.15-.15.23-.38.23-.68v-.21c-.12.14-.26.24-.43.31-.17.07-.35.1-.55.1-.26,0-.49-.06-.7-.17-.21-.11-.37-.27-.49-.46-.12-.2-.18-.43-.18-.68s.06-.48.18-.68c.12-.2.28-.35.49-.46.21-.11.44-.16.7-.16.2,0,.39.04.57.11.18.07.32.19.43.33v-.42h.46ZM143.41,35.65c.14-.07.25-.18.33-.31.08-.13.12-.29.12-.46,0-.26-.09-.47-.26-.64-.17-.16-.4-.24-.67-.24s-.5.08-.67.24c-.17.16-.26.37-.26.64,0,.17.04.32.12.46.08.13.19.24.33.31.14.08.3.11.48.11s.34-.04.48-.11Z"/>
      <path class="st0" d="M149.33,36.36l-.48-.48c-.32.31-.72.46-1.2.46-.24,0-.45-.04-.64-.12-.19-.08-.34-.19-.45-.33-.11-.14-.16-.3-.16-.48,0-.22.07-.41.2-.58.13-.17.36-.34.67-.52-.16-.16-.27-.3-.33-.42-.06-.13-.1-.26-.1-.39,0-.24.09-.44.26-.58.18-.15.41-.22.7-.22.27,0,.49.07.65.2.16.13.24.32.24.55,0,.18-.06.34-.18.49-.12.14-.31.29-.58.45l.88.88c.1-.19.18-.41.22-.65l.39.13c-.06.31-.17.59-.31.82l.48.48-.28.33ZM148.57,35.6l-1.02-1.01c-.25.14-.42.26-.51.38-.1.12-.15.25-.15.4,0,.17.07.31.22.41.15.11.34.16.58.16.35,0,.65-.11.87-.34ZM147.44,33.17c-.09.08-.14.18-.14.31,0,.09.02.18.07.27.05.09.15.2.29.35.24-.13.4-.25.49-.34s.14-.2.14-.31c0-.12-.04-.21-.13-.29-.08-.07-.2-.11-.35-.11-.16,0-.29.04-.38.12Z"/>
      <path class="st0" d="M154.19,35.86v.44h-2.6v-3.58h2.52v.44h-2.01v1.1h1.79v.43h-1.79v1.15h2.08Z"/>
      <path class="st0" d="M157.3,33.59l-1.19,2.71h-.5l-1.19-2.71h.51l.93,2.17.95-2.17h.48Z"/>
      <path class="st0" d="M159.52,33.84c.2.18.3.46.3.82v1.63h-.46v-.36c-.08.13-.2.22-.35.29-.15.07-.33.1-.54.1-.3,0-.55-.07-.73-.22-.18-.15-.27-.34-.27-.58s.09-.43.26-.58c.17-.14.45-.22.83-.22h.78v-.1c0-.21-.06-.37-.18-.49-.12-.11-.3-.17-.54-.17-.16,0-.32.03-.47.08-.15.05-.28.12-.39.21l-.2-.37c.14-.11.31-.2.5-.26.19-.06.4-.09.62-.09.37,0,.66.09.86.28ZM159.03,35.83c.14-.08.24-.2.3-.35v-.38h-.76c-.42,0-.62.14-.62.42,0,.14.05.24.16.32.11.08.25.12.44.12s.35-.04.49-.13Z"/>
      <path class="st0" d="M160.73,32.51h.49v3.79h-.49v-3.79Z"/>
      <path class="st0" d="M164.68,33.59v2.71h-.47v-.41c-.1.14-.23.25-.39.32-.16.08-.34.12-.53.12-.36,0-.65-.1-.85-.3-.21-.2-.31-.49-.31-.88v-1.56h.49v1.5c0,.26.06.46.19.6.13.13.31.2.54.2.26,0,.46-.08.61-.24.15-.16.22-.38.22-.66v-1.4h.49Z"/>
      <path class="st0" d="M167.46,33.84c.2.18.3.46.3.82v1.63h-.46v-.36c-.08.13-.2.22-.35.29-.15.07-.33.1-.54.1-.3,0-.55-.07-.73-.22-.18-.15-.27-.34-.27-.58s.09-.43.26-.58c.17-.14.45-.22.83-.22h.78v-.1c0-.21-.06-.37-.18-.49-.12-.11-.3-.17-.54-.17-.16,0-.32.03-.47.08-.15.05-.28.12-.39.21l-.2-.37c.14-.11.31-.2.5-.26.19-.06.4-.09.62-.09.37,0,.66.09.86.28ZM166.97,35.83c.14-.08.24-.2.3-.35v-.38h-.76c-.42,0-.62.14-.62.42,0,.14.05.24.16.32.11.08.25.12.44.12s.35-.04.49-.13Z"/>
      <path class="st0" d="M170.19,36.14c-.07.06-.16.11-.27.14s-.21.05-.33.05c-.27,0-.48-.07-.63-.22-.15-.15-.23-.36-.23-.63v-1.49h-.46v-.4h.46v-.59h.49v.59h.78v.4h-.78v1.47c0,.15.04.26.11.34.07.08.18.12.31.12.15,0,.28-.04.38-.13l.15.35Z"/>
      <path class="st0" d="M170.79,32.98c-.06-.06-.09-.14-.09-.22s.03-.16.09-.23c.06-.06.14-.09.24-.09s.17.03.24.09c.06.06.09.13.09.22s-.03.17-.09.23c-.06.06-.14.09-.24.09s-.17-.03-.24-.09ZM170.78,33.59h.49v2.71h-.49v-2.71Z"/>
      <path class="st0" d="M172.64,36.15c-.21-.12-.38-.28-.5-.49-.12-.21-.18-.45-.18-.71s.06-.5.18-.71c.12-.21.29-.37.5-.49.21-.12.46-.18.73-.18s.51.06.72.18c.21.12.38.28.5.49.12.21.18.45.18.71s-.06.5-.18.71-.29.37-.5.49c-.21.12-.45.18-.72.18s-.51-.06-.73-.18ZM173.84,35.78c.14-.08.25-.19.32-.34.08-.14.12-.31.12-.5s-.04-.35-.12-.5c-.08-.14-.19-.26-.32-.33-.14-.08-.29-.12-.47-.12s-.33.04-.47.12c-.14.08-.25.19-.33.33-.08.15-.12.31-.12.5s.04.35.12.5c.08.14.19.26.33.34.14.08.29.12.47.12s.33-.04.47-.12Z"/>
      <path class="st0" d="M177.72,33.87c.2.2.3.49.3.88v1.56h-.49v-1.5c0-.26-.06-.46-.19-.59-.13-.13-.31-.2-.54-.2-.27,0-.47.08-.63.23-.15.15-.23.38-.23.67v1.39h-.49v-2.71h.47v.41c.1-.14.23-.25.4-.32.17-.07.36-.11.57-.11.34,0,.62.1.82.3Z"/>
    </g>
  </g>
</svg>