<?xml version="1.0" encoding="UTF-8"?>
<svg id="_레이어_1" xmlns="http://www.w3.org/2000/svg" version="1.1" viewBox="0 0 200 40">
  <!-- Generator: Adobe Illustrator 29.7.1, SVG Export Plug-In . SVG Version: 2.1.1 Build 8)  -->
  <defs>
    <style>
      .st0 {
        fill: #fff;
      }
    </style>
  </defs>
  <g>
    <g>
      <g>
        <path class="st0" d="M25.7,17.04c-.11.55-.46.92-.94.82-.49-.1-.71-.61-.61-1.09.02-.11.05-.21.12-.3-.05.37.1.81.51.89.38.07.58-.16.65-.5.02-.1.03-.2.03-.3l-1.93-.38c-.24-.05-.41-.09-.58.11h-.01s.17-.85.17-.85h.01c.03.23.35.27.55.31l1.61.32c.19.04.5.12.63-.07h.01s-.21,1.03-.21,1.03Z"/>
        <path class="st0" d="M22.84,19.94c-.25-.2-.34-.55-.33-.86.01-.29.11-.59.33-.77.26-.22.55-.2.87-.19l1.16.04c.2,0,.52.05.61-.17h.01l-.03.82h-.01c-.08-.22-.39-.2-.59-.21l-1.16-.04c-.58-.02-.86.21-.87.66,0,.24.08.49.28.64.13.1.24.1.4.1l1.31.05c.19,0,.51.04.6-.17h.01s-.03.82-.03.82h-.01c-.08-.22-.39-.2-.59-.21l-1.64-.06c-.2,0-.51-.04-.6.18h-.01l.02-.63h.29Z"/>
        <path class="st0" d="M25.14,22.58c.15-.19.21-.47.18-.71-.03-.24-.17-.54-.47-.5-.59.07-.39,1.55-1.19,1.65-.47.06-.96-.36-1.05-1.03-.04-.26-.03-.53.03-.78l.53-.2c-.19.28-.28.65-.24.99.03.24.23.59.53.56.68-.09.36-1.55,1.28-1.66.54-.07.83.45.89.98.03.21.03.44-.01.65l-.49.06Z"/>
        <path class="st0" d="M24.68,24.7l-.24-.82,1.17.12-.94.71ZM24.41,24.91l-.53.39c-.26.19-.3.24-.45.06h-.01s.25.86.25.86h.01c.06-.27.27-.42.48-.58l1.9-1.47-.19-.66h-.01c0,.22-.2.19-.37.18l-1.95-.2c-.26-.02-.52-.03-.71-.24h-.01s.22.77.22.77h.01c.02-.23.15-.23.41-.21l.65.05.3,1.05Z"/>
        <path class="st0" d="M24.47,26.62c-.22.11-.38.18-.4.44h-.01s-.34-.68-.34-.68h.01c.22.14.38.06.6-.04l1.56-.75c.22-.11.38-.18.4-.44h.01s.28.56.28.56h0s-.05.06-.07.11l-.05.09-1.11,2.3,1.48-.72c.22-.11.38-.18.39-.44h.01s.34.68.34.68h-.01c-.22-.14-.37-.07-.59.04l-2.2,1.06c-.04-.32.03-.5.17-.78l1.05-2.16-1.52.73Z"/>
        <path class="st0" d="M26.93,30.83c-.18.16-.32.27-.26.53h0s-.52-.56-.52-.56h0c.25.07.39-.04.57-.2l1.29-1.15c.18-.16.31-.28.25-.53h0s.43.46.43.46h0s-.03.08-.04.12l-.02.1-.43,2.51,1.23-1.1c.18-.16.31-.27.26-.53h.01s.51.56.51.56h-.01c-.25-.07-.38.04-.56.21l-1.82,1.62c-.13-.3-.11-.49-.06-.8l.41-2.36-1.25,1.12Z"/>
        <path class="st0" d="M30.52,33.23l-.68-.53,1.02-.59-.34,1.12ZM30.42,33.55l-.19.63c-.09.31-.1.37-.32.31h-.01s.71.56.71.56h.01c-.12-.26-.03-.5.04-.75l.66-2.3-.54-.42h0c.12.19-.05.28-.2.37l-1.69.98c-.23.14-.44.28-.72.23h0s.63.5.63.5h0c-.12-.2-.01-.28.21-.41l.56-.34.87.67Z"/>
        <path class="st0" d="M31.9,35.14c-.13.21-.22.36-.08.59h0s-.75-.42-.75-.42h0c.23.03.37-.26.47-.43l.98-1.67-.33-.19c-.16-.09-.36-.15-.54-.11h-.01s.39-.37.39-.37h.01c.03.05.08.08.13.11l.1.05,1.4.81c.06.04.13.07.19.07h.01s-.38.38-.38.38h-.01c.03-.17-.11-.27-.24-.34l-.34-.19-1,1.7Z"/>
        <path class="st0" d="M33.96,34.3c.08-.18.24-.46.07-.62h0s.76.32.76.32h0c-.23,0-.34.3-.42.48l-.66,1.49c-.08.18-.23.46-.07.62h0s-.76-.32-.76-.32h0c.23,0,.33-.3.41-.48l.66-1.49Z"/>
        <path class="st0" d="M36.37,34.78c.66.18.89.88.72,1.48-.17.62-.71.97-1.35.79-.66-.18-.91-.9-.74-1.48.18-.63.73-.98,1.38-.8ZM36.49,34.49c-.88-.26-1.76.2-1.98,1-.24.85.29,1.64,1.12,1.87.83.23,1.72-.19,1.96-1.04.21-.75-.22-1.59-1.1-1.83Z"/>
        <path class="st0" d="M38.3,37.25c-.02.24-.04.41.19.56h0s-.77-.04-.77-.04h0c.24-.13.26-.3.27-.54l.13-1.72c.02-.24.03-.41-.19-.56h0s.64.04.64.04h0c.01.06.03.08.06.12l.05.09,1.44,2.11.12-1.64c.02-.24.03-.41-.19-.56h0s.77.04.77.04h0c-.23.12-.25.3-.26.54l-.18,2.42c-.3-.13-.43-.28-.6-.53l-1.35-1.99-.13,1.67Z"/>
        <path class="st0" d="M42.62,36.46l-.86.09.32-1.12.54,1.04ZM42.77,36.77l.3.58c.15.29.19.33-.02.45h0s.89-.08.89-.08h0c-.26-.11-.36-.34-.49-.58l-1.13-2.12-.68.07h0c.22.06.15.24.11.41l-.54,1.87c-.07.25-.12.5-.36.65h0s.8-.07.8-.07h0c-.22-.07-.2-.2-.13-.45l.16-.63,1.1-.11Z"/>
        <path class="st0" d="M45.38,37c.29-.06.51-.22.68-.45h.01s-.07.61-.07.61l-1.73.46h0c.19-.15.09-.45.03-.64l-.42-1.57c-.05-.19-.11-.51-.35-.52h0s.81-.23.81-.23h0c-.19.15-.08.45-.03.64l.49,1.82.58-.11Z"/>
        <path class="st0" d="M49.68,35.13c-.05.31-.31.57-.58.72-.25.14-.56.2-.84.11-.32-.11-.46-.37-.61-.64l-.56-1.01c-.09-.17-.22-.46-.46-.43h0s.73-.4.73-.4h0c-.15.19.02.45.12.62l.56,1.01c.28.5.62.62,1.02.41.22-.12.38-.32.41-.57.02-.16-.03-.25-.11-.39l-.63-1.14c-.09-.17-.23-.46-.45-.43h0s.73-.4.73-.4h0c-.16.19.02.45.12.62l.79,1.43c.09.17.22.46.46.43h0s-.56.31-.56.31l-.14-.25Z"/>
        <path class="st0" d="M51.11,33.83c.16.19.27.32.53.28h.01s-.6.5-.6.5h0c.09-.26-.02-.39-.18-.58l-1.12-1.33c-.16-.18-.27-.32-.53-.27h0s.49-.41.49-.41h0s.07.04.12.05l.1.03,2.51.52-1.06-1.26c-.16-.19-.26-.32-.53-.28h0s.59-.5.59-.5h0c-.09.25.02.39.18.57l1.57,1.86c-.31.12-.5.09-.81.03l-2.36-.49,1.08,1.28Z"/>
        <path class="st0" d="M52.26,30.51c-.15-.13-.37-.36-.58-.25h0s.55-.62.55-.62h0c-.08.23.18.42.32.55l1.23,1.08c.15.13.37.36.57.25h.01s-.55.62-.55.62h-.01c.09-.22-.17-.42-.32-.54l-1.23-1.08Z"/>
        <path class="st0" d="M54.09,28.37c-.18-.27-.39-.59-.64-.44h-.01s.37-.53.37-.53l1.8,2.63c-.34.13-.43.2-.78.1l-1.84-.47c-.23-.06-.48-.15-.71-.08h0s.36-.53.36-.53l.04.03c.08.06.3.11.4.13l1.95.51-.95-1.37Z"/>
        <path class="st0" d="M56.36,27.79l.29-.47c.15-.25.2-.55.12-.83h0s.43.41.43.41l-.8,1.62h-.01c.03-.24-.28-.36-.45-.44l-1.48-.71c-.18-.09-.45-.25-.63-.08h-.01s.61-1.25.61-1.25c.03-.06.07-.13.07-.19h0s.46.21.46.21h0c-.2.06-.29.22-.38.39-.07.14-.13.27-.17.41l.73.35.23-.46c.03-.06.06-.12.06-.18h0s.42.19.42.19h0c-.14.02-.22.18-.28.3l-.14.29.93.45Z"/>
        <path class="st0" d="M54.99,24.49c.18-.55.57-.75.95-.63.36.12.54.53.52.89l.94-.35c.27-.1.57-.29.8-.48l-.13.38c-.07.22-.17.34-.36.41l-.79.3-.71.19c.06-.35.03-.78-.36-.9-.3-.1-.56.1-.63.38-.03.09-.05.19-.06.29l1.86.6c.19.06.49.19.63,0h.01s-.26.79-.26.79h-.01c0-.24-.32-.31-.51-.37l-1.56-.5c-.19-.06-.48-.19-.63,0h-.01s.32-.98.32-.98Z"/>
        <path class="st0" d="M56.16,21.7c-.2.14-.34.39-.38.63-.04.24,0,.56.3.61.59.1.82-1.37,1.62-1.24.46.07.81.62.7,1.29-.04.26-.13.51-.25.74l-.56.03c.26-.21.46-.54.51-.87.04-.24-.05-.63-.35-.68-.67-.11-.8,1.38-1.71,1.23-.54-.09-.66-.67-.57-1.19.04-.21.1-.43.2-.62l.49.08Z"/>
        <path class="st0" d="M56.28,20.96c-.2-.01-.52-.06-.61.15h-.01l.05-.82h.01c.07.22.39.21.59.22l1.64.09c.2.01.51.06.61-.15h.01l-.05.82h-.01c-.07-.22-.39-.21-.58-.23l-1.64-.09Z"/>
        <path class="st0" d="M57.95,18.73c.25-.01.42-.02.54-.26h.02s.05.86.05.86h-.02c-.09-.21-.41-.17-.61-.16l-1.94.1.02.38c0,.18.07.37.2.5h0s-.53-.11-.53-.11h0c.02-.06.02-.12.02-.18v-.11s-.09-1.61-.09-1.61c0-.07,0-.14-.04-.2h0s.53.1.53.1h0c-.15.08-.16.25-.16.39l.02.39,1.99-.1Z"/>
        <path class="st0" d="M57.57,16.14c.26-.05.38-.08.5-.32h.01s.17.82.17.82h-.01c-.15-.18-.42-.1-.62-.06l-.63.13-1,.93c-.16.15-.29.26-.36.49l-.08-.38c-.03-.14-.02-.27.05-.34l.97-.91-.9-.36c-.12-.05-.35-.11-.41.16h-.01s-.15-.74-.15-.74l1.8.72.68-.14Z"/>
        <path class="st0" d="M25.72,13.07c0,.21-.17.37-.38.37s-.38-.17-.38-.37.17-.37.38-.37.38.17.38.37Z"/>
        <path class="st0" d="M56.19,13.07c0,.21-.17.37-.38.37s-.38-.17-.38-.37.17-.37.38-.37.38.17.38.37Z"/>
      </g>
      <path class="st0" d="M41.67,2.39h-.37v-.89h-.44v2.3c-.15.16-.41.15-.41.15h-1.25s-.03-.02-.03-.03v-1.8h1.33v-.36h-1.78v2.15c0,.21.18.38.39.38h1.32s.22.02.42-.09v1.24h.44v-2.7h.37v2.7h.44V1.51h-.44v.89Z"/>
      <polygon class="st0" points="27.32 10.78 28.45 9.54 29.44 10.43 29.73 10.1 28.74 9.22 29.87 7.99 29.6 7.75 27.06 10.54 27.32 10.78"/>
      <path class="st0" d="M26.8,9.71c.16.14.41.13.55-.03l1.42-1.55c.14-.16.13-.4-.03-.55l-1.11-.99-.3.33.45.4-1.35,1.48-.45-.4-.3.32,1.11,1ZM28.05,7.55l.4.35s.02.03,0,.05l-1.3,1.43s-.03.01-.05,0l-.4-.35,1.35-1.48Z"/>
      <polygon class="st0" points="34.33 2.58 33.92 2.76 35.1 5.37 35.5 5.2 34.84 3.72 35.37 3.48 35.23 3.16 34.69 3.39 34.33 2.58"/>
      <path class="st0" d="M33.68,6.71l-.44-.97-.4.18.44.97c.09.2.32.28.52.2l2.13-.94-.15-.32-2.06.91s-.04,0-.04-.02Z"/>
      <path class="st0" d="M32.71,3.81l-.16-.35-.4.18.16.35c.47,1.03-.44,1.69-.5,1.73l.39.15c.21-.18.63-.62.67-1.17.44.35,1.05.32,1.32.29l.15-.39c-.09.02-1.17.24-1.63-.79Z"/>
      <g>
        <polygon class="st0" points="53.59 8.94 53.29 8.63 52.16 9.67 51.8 9.29 52.93 8.24 52.63 7.92 51.5 8.97 50.86 8.3 50.61 8.54 53.13 11.21 53.39 10.98 52.46 9.99 53.59 8.94"/>
        <path class="st0" d="M53.92,9.37c-.46.43-.83.56-.83.56l.3.32s.37-.14.83-.56l1.15-1.06h0s0,0,0,0l-2-2.12-.26.24,1.7,1.8-.89.82Z"/>
      </g>
      <g>
        <polygon class="st0" points="49.56 5.02 49.7 4.7 49.16 4.47 49.51 3.65 49.11 3.48 48.17 5.61 48.58 5.78 49.02 4.79 49.56 5.02"/>
        <polygon class="st0" points="48.51 5.94 45.94 4.84 45.8 5.16 47.96 6.09 47.52 7.1 47.93 7.27 48.51 5.95 48.51 5.94 48.51 5.94"/>
        <path class="st0" d="M48.65,3.67l-1.03-.44.18-.4-.41-.18-.18.41-1.03-.44-.14.33.5.22c-.18.09-.33.23-.42.42-.2.46.05,1.01.56,1.23.51.22,1.09.03,1.29-.43.08-.19.09-.4.03-.59l.5.22.14-.33ZM46.83,4.47c-.29-.12-.42-.45-.3-.73.12-.28.45-.4.74-.28.28.12.42.45.3.73-.12.28-.45.4-.74.28Z"/>
      </g>
      <g>
        <path class="st0" d="M60.05,20c0,10.76-8.73,19.49-19.49,19.49s-19.49-8.73-19.49-19.49S29.8.51,40.56.51s19.49,8.73,19.49,19.49ZM40.56.78c-10.62,0-19.23,8.61-19.23,19.22s8.61,19.22,19.23,19.22,19.22-8.61,19.22-19.22S51.18.78,40.56.78Z"/>
        <path class="st0" d="M54.69,20c0,7.8-6.32,14.12-14.12,14.12s-14.13-6.32-14.13-14.12,6.32-14.12,14.13-14.12,14.12,6.32,14.12,14.12ZM40.56,6.14c-7.66,0-13.86,6.21-13.86,13.86s6.21,13.86,13.86,13.86,13.86-6.2,13.86-13.86-6.21-13.86-13.86-13.86Z"/>
      </g>
    </g>
    <g>
      <path class="st0" d="M49.36,27.66h-6.56c-2.03.01-2.28,1.35-2.28,1.35-.42-1.52-2.37-1.35-2.37-1.35h-6.41v-9.4h6.18c2.06.04,2.6,1.67,2.6,1.67.67-1.65,2.8-1.66,2.8-1.66h6.03s0,9.4,0,9.4ZM42.91,17.33c-1.8.06-2.37,1.11-2.37,1.11-.57-1.11-2.31-1.11-2.31-1.11h-7.43v11.26h7.27c.99,0,1.34.47,1.46.8h2.01c.35-.84,1.36-.79,1.36-.79h7.39v-11.27h-7.39Z"/>
      <path class="st0" d="M36.74,22.59h-2.71v2.73h0s3.73,0,3.73,0h0s0,0,0,0v-1.78h.94v1.79h3.72v-1.79h.94v1.79h3.72v-.94h-2.7v-.85h2.7v-2.83h-3.72v1.89h-.94v-1.89h-1.02v1.89h-1.69v-1.89h-1.02v1.89h-.94v-1.89h-3.73v.94h2.71v.95ZM36.74,24.38h-1.69v-.85h1.69v.85ZM41.41,24.38h-1.69v-.85h1.69v.85ZM44.39,21.64h1.69v.95h-1.69v-.95Z"/>
      <g>
        <polygon class="st0" points="40 12.11 40.9 11.82 40 11.82 40 12.11"/>
        <path class="st0" d="M38.05,13.41c.33-.35.68-.3.68-.16s-.17.33-.17.33h-2.14l-1.17-1.69h0c-.29-.43-.67-.62-1.29-.62h-3.15v5.08c1.91,0,6.62,0,7.18,0,2.12.02,2.53.92,2.53.92.44-.7,1.3-.92,2.62-.92h7.16v-5.09h-3.19c-.61,0-.99.19-1.28.62h0l-1.2,1.69h-1.77v-1.5l1.21-1.19h-1.25s.32-.28.32-.28h-2.54c-.51,0-.91.21-1.06.5h-.89c-.82,0-1.12.46-.96,1.07l.36,1.23ZM49.36,15.41h-5.98c-1.59,0-2.34.11-2.84.66-.55-.53-.97-.66-2.57-.66h-6.22v-3.21h1.95c.19,0,.35.04.46.1.08.04.22.14.32.28.13.18,1.29,1.88,1.29,1.88h3.34s.31-.64.5-1.09c.2-.45.13-.77-.29-.8-.35-.03-.57.06-.6.2l-.15-.51c-.09-.26-.03-.44.33-.44h1.08s.02-.35.62-.35h1.78l-.5.46v2.53h3.46s1.1-1.7,1.23-1.88c.1-.14.24-.24.32-.28.1-.06.27-.1.46-.11h1.99v3.22Z"/>
      </g>
      <path class="st0" d="M39.06,26.32c.13-.04.24-.14.31-.25h0v.8c0,.08,0,.15.07.2h0s-.3,0-.3,0h0c.09-.05.08-.12.08-.2v-.55h-.17Z"/>
      <path class="st0" d="M39.8,27.02c.23-.05.44-.26.44-.49,0-.14-.08-.3-.25-.3-.12,0-.21.1-.21.21,0,.13.09.23.22.23.05,0,.11-.02.15-.04l-.1.12s-.08.02-.12.02c-.17,0-.3-.13-.3-.29,0-.21.17-.35.37-.35.23,0,.37.18.37.39,0,.16-.09.32-.22.42-.13.1-.28.16-.44.18l.07-.09Z"/>
      <path class="st0" d="M40.94,26.77c-.13,0-.23,0-.31-.01l.31-.52v.53ZM40.94,26.88v.04c0,.07,0,.12-.07.15h0s.28,0,.28,0h0c-.06-.04-.07-.1-.07-.17v-.03h.12l.07-.17c-.05.04-.12.06-.18.06v-.63h-.2l-.45.74h.5Z"/>
      <path class="st0" d="M41.96,26.2c-.1.01-.21.09-.28.15-.1.09-.16.21-.16.35,0,.15.08.31.25.31.13,0,.2-.1.2-.22,0-.14-.07-.24-.22-.24-.06,0-.11.02-.16.05l.09-.12s.08-.03.13-.03c.18,0,.31.12.31.3,0,.2-.16.34-.36.34-.23,0-.38-.18-.38-.4,0-.34.34-.56.65-.59l-.07.09Z"/>
    </g>
  </g>
  <g>
    <path class="st0" d="M68.83,28.66c1.06,0,1.87.52,1.87,1.43s-.87,1.54-1.8,1.54c-.21,0-.41-.02-.6-.12.7-.04,1.46-.47,1.46-1.26,0-.72-.51-1.01-1.16-1.01-.2,0-.38.02-.57.05v3.69c0,.46,0,.78.42,1.03v.03h-1.63v-.03c.42-.15.37-.75.37-1.12v-3.08c0-.37.05-.96-.36-1.13v-.03h1.98Z"/>
    <path class="st0" d="M74.87,33.5c-.36.47-1.03.67-1.6.67-.54,0-1.11-.17-1.48-.57-.43-.47-.42-1.02-.42-1.61v-2.18c0-.37.06-.97-.36-1.12v-.03h1.55v.03c-.41.15-.36.75-.36,1.12v2.18c0,1.08.46,1.59,1.3,1.59.46,0,.92-.19,1.19-.57.18-.25.17-.45.17-.75v-2.46c0-.37.05-.97-.36-1.12v-.03h1.55v.03c-.41.15-.36.75-.36,1.13v3.08c0,.37-.05.96.37,1.12v.03h-1.2v-.54Z"/>
    <path class="st0" d="M80.17,29.63c-.32-.33-.83-.51-1.28-.51s-1.06.18-1.06.74c0,1.12,2.81,1.1,2.81,2.61,0,.87-.91,1.69-2.19,1.69-.5,0-1-.07-1.46-.24l-.24-1.02c.48.42,1.15.68,1.79.68.47,0,1.17-.28,1.17-.85,0-1.27-2.81-1.05-2.81-2.78,0-1.03,1.06-1.42,2.05-1.42.41,0,.83.05,1.22.18v.92Z"/>
    <path class="st0" d="M84.13,31.41h-1.61l.81-2.06.8,2.06ZM84.37,32.02l.44,1.15c.22.57.29.66-.11.84v.03h1.67v-.03c-.46-.24-.61-.69-.8-1.16l-1.7-4.19h-1.29v.03c.39.12.24.47.12.76l-1.36,3.41c-.18.47-.32.92-.79,1.16v.03h1.51v-.03c-.4-.15-.34-.39-.16-.84l.42-1.15h2.06Z"/>
    <path class="st0" d="M87.5,32.97c0,.46-.01.79.42,1.04v.03h-1.45v-.03c.43-.25.43-.58.43-1.04v-3.26c0-.46,0-.78-.43-1.03v-.03h1.19c.03.11.06.15.12.21l.11.17,2.99,3.77v-3.1c0-.46,0-.78-.43-1.03v-.03h1.44v.03c-.42.24-.42.57-.42,1.03v4.59c-.58-.2-.83-.46-1.19-.93l-2.8-3.55v3.16Z"/>
    <path class="st0" d="M95.83,32.97c0,.46,0,.79.42,1.04v.03h-1.44v-.03c.43-.25.43-.58.43-1.04v-3.26c0-.46,0-.78-.43-1.03v-.03h1.2c.03.11.06.15.12.21l.11.17,2.99,3.77v-3.1c0-.46,0-.78-.42-1.03v-.03h1.43v.03c-.42.24-.42.57-.42,1.03v4.59c-.58-.2-.84-.46-1.19-.93l-2.8-3.55v3.16Z"/>
    <path class="st0" d="M103.77,31.41h-1.61l.81-2.06.8,2.06ZM104,32.02l.44,1.15c.22.57.29.66-.11.84v.03h1.67v-.03c-.47-.24-.61-.69-.8-1.16l-1.7-4.19h-1.29v.03c.39.12.24.47.12.76l-1.37,3.41c-.18.47-.32.92-.79,1.16v.03h1.5v-.03c-.39-.15-.33-.39-.16-.84l.42-1.15h2.06Z"/>
    <path class="st0" d="M107.83,32.97c0,.47,0,.79.42,1.04v.03h-1.61v-.03c.41-.16.36-.75.36-1.12v-3.65h-.72c-.35,0-.72.09-.97.33h-.03l.29-.98h.03c.09.04.2.04.31.06h3.25c.14,0,.27,0,.37-.06h.03l-.26.98h-.03c-.1-.29-.43-.33-.7-.33h-.73v3.72Z"/>
    <path class="st0" d="M110.5,29.81c0-.38.06-.97-.36-1.13v-.03h1.55v.03c-.41.15-.36.76-.36,1.13v3.08c0,.37-.05.96.36,1.12v.03h-1.55v-.03c.4-.15.36-.75.36-1.12v-3.08Z"/>
    <path class="st0" d="M115.11,29.11c1.29,0,2.05,1.15,2.05,2.34s-.79,2.12-2.03,2.12-2.09-1.18-2.09-2.32c0-1.24.81-2.15,2.07-2.15ZM115.17,28.52c-1.71-.04-3.06,1.26-3.06,2.81,0,1.68,1.36,2.83,2.97,2.83s3.01-1.21,3.01-2.88c0-1.47-1.21-2.78-2.93-2.77Z"/>
    <path class="st0" d="M119.37,32.97c0,.46-.01.79.42,1.04v.03h-1.44v-.03c.43-.25.43-.58.43-1.04v-3.26c0-.46,0-.78-.42-1.03v-.03h1.19c.03.11.07.15.12.21l.12.17,2.99,3.77v-3.1c0-.46,0-.78-.43-1.03v-.03h1.44v.03c-.42.24-.42.57-.42,1.03v4.59c-.58-.2-.83-.46-1.19-.93l-2.8-3.55v3.16Z"/>
    <path class="st0" d="M127.28,31.41h-1.61l.81-2.06.8,2.06ZM127.52,32.02l.44,1.15c.22.57.28.66-.11.84v.03h1.67v-.03c-.46-.24-.61-.69-.8-1.16l-1.7-4.19h-1.29v.03c.39.12.24.47.13.76l-1.36,3.41c-.18.47-.32.92-.79,1.16v.03h1.5v-.03c-.39-.15-.34-.39-.17-.84l.43-1.15h2.06Z"/>
    <path class="st0" d="M132.12,33.45c.55.03,1.04-.15,1.45-.5h.02l-.42,1.09h-3.36v-.03c.42-.15.37-.75.37-1.12v-3.08c0-.38.05-.97-.37-1.13v-.03h1.56v.03c-.42.15-.36.76-.36,1.13v3.56l1.11.07Z"/>
    <path class="st0" d="M139.7,33.5c-.36.47-1.03.67-1.6.67s-1.11-.17-1.48-.57c-.44-.47-.42-1.02-.42-1.61v-2.18c0-.37.06-.97-.36-1.12v-.03h1.55v.03c-.4.15-.36.75-.36,1.12v2.18c0,1.08.46,1.59,1.3,1.59.46,0,.92-.19,1.2-.57.17-.25.17-.45.17-.75v-2.46c0-.37.05-.97-.36-1.12v-.03h1.55v.03c-.41.15-.36.75-.36,1.13v3.08c0,.37-.05.96.37,1.12v.03h-1.2v-.54Z"/>
    <path class="st0" d="M142.65,32.97c0,.46-.01.79.42,1.04v.03h-1.45v-.03c.44-.25.44-.58.44-1.04v-3.26c0-.46,0-.78-.43-1.03v-.03h1.19c.03.11.06.15.12.21l.12.17,2.98,3.77v-3.1c0-.46.01-.78-.42-1.03v-.03h1.44v.03c-.42.24-.42.57-.42,1.03v4.59c-.58-.2-.83-.46-1.19-.93l-2.8-3.55v3.16Z"/>
    <path class="st0" d="M148.26,29.81c0-.38.06-.97-.36-1.13v-.03h1.56v.03c-.41.15-.36.76-.36,1.13v3.08c0,.37-.05.96.36,1.12v.03h-1.56v-.03c.42-.15.36-.75.36-1.12v-3.08Z"/>
    <path class="st0" d="M153.57,30.14c.22-.58.5-1.25,0-1.45v-.03h1.22l-2.16,5.62c-.57-.38-.76-.44-1-1.09l-1.24-3.34c-.16-.42-.28-.89-.64-1.17v-.03h1.2v.1c0,.18.14.58.21.76l1.29,3.55,1.11-2.93Z"/>
    <path class="st0" d="M156.36,33.35l1.04.1c.53.05,1.1-.12,1.51-.49h.03l-.37,1.07h-3.4v-.03c.42-.15.37-.75.37-1.12v-3.08c0-.38.05-.97-.37-1.13v-.03h2.61c.14,0,.28.02.39-.04h.03v.96h-.03c-.26-.3-.59-.33-.96-.33-.29,0-.57,0-.83.06v1.52h.97c.13,0,.26,0,.36-.05h.02v.87h-.02c-.13-.24-.47-.23-.73-.23h-.6v1.94Z"/>
    <path class="st0" d="M161.25,28.66c1.09,0,1.69.57,1.69,1.32s-.63,1.29-1.3,1.44l1.18,1.48c.34.42.86.85,1.32,1.14h-.75c-.44,0-.7-.11-.95-.41l-1-1.23-.75-1.15c.65-.1,1.41-.4,1.41-1.17,0-.59-.51-.93-1.05-.9-.19,0-.37.03-.56.06v3.66c0,.37-.05.97.37,1.12v.03h-1.56v-.03c.42-.15.35-.75.35-1.12v-3.08c0-.38.06-.97-.35-1.13v-.03h1.94Z"/>
    <path class="st0" d="M167.17,29.63c-.32-.33-.83-.51-1.29-.51s-1.05.18-1.05.74c0,1.12,2.81,1.1,2.81,2.61,0,.87-.92,1.69-2.19,1.69-.5,0-1-.07-1.47-.24l-.24-1.02c.49.42,1.15.68,1.79.68.47,0,1.17-.28,1.17-.85,0-1.27-2.81-1.05-2.81-2.78,0-1.03,1.05-1.42,2.05-1.42.41,0,.83.05,1.22.18v.92Z"/>
    <path class="st0" d="M168.6,29.81c0-.38.06-.97-.36-1.13v-.03h1.55v.03c-.41.15-.35.76-.35,1.13v3.08c0,.37-.05.96.35,1.12v.03h-1.55v-.03c.41-.15.36-.75.36-1.12v-3.08Z"/>
    <path class="st0" d="M172.71,32.97c0,.47,0,.79.43,1.04v.03h-1.62v-.03c.41-.16.36-.75.36-1.12v-3.65h-.72c-.35,0-.72.09-.97.33h-.03l.29-.98h.03c.1.04.21.04.31.06h3.25c.14,0,.27,0,.38-.06h.02l-.26.98h-.03c-.11-.29-.44-.33-.7-.33h-.74v3.72Z"/>
    <path class="st0" d="M176.92,32.97c0,.5,0,.74.42,1.04v.03h-1.59v-.03c.4-.2.34-.73.34-1.12v-1.21l-1.35-2.18c-.22-.36-.38-.63-.78-.84h.74c.26,0,.5.06.61.23l1.31,2.13,1.01-1.52c.14-.2.33-.59-.13-.82v-.03h1.43l-2.01,3.02v1.29Z"/>
  </g>
  <g>
    <path class="st0" d="M128.48,10.33h-1.72v-4.17h-2.07v10.82c-.71.76-1.9.71-1.9.71h-5.81c-.08,0-.15-.07-.15-.16v-8.45s6.22,0,6.22,0v-1.67h-8.29s0,10.13,0,10.13c0,1,.82,1.81,1.82,1.81h6.15s1.01.09,1.95-.44v5.82h2.07v-12.72h1.72v12.72h2.06V6.16h-2.06v4.17Z"/>
    <g>
      <polygon class="st0" points="66.83 18.49 74.67 18.49 74.67 24.72 76.73 24.72 76.73 18.49 84.54 18.49 84.54 16.83 66.83 16.83 66.83 18.49"/>
      <path class="st0" d="M70.75,15.12h9.86c1.01,0,1.82-.82,1.82-1.82v-6.99s-2.06,0-2.06,0v2.83h-9.38v-2.83h-2.07v6.99c0,1.01.82,1.82,1.82,1.82ZM80.37,10.81v2.49c0,.09-.07.15-.15.15h-9.07c-.08,0-.15-.07-.15-.15v-2.49s9.37,0,9.37,0Z"/>
    </g>
    <g>
      <polygon class="st0" points="105.92 6.15 103.86 6.15 103.86 19.63 105.92 19.63 105.92 12 108.66 12 108.66 10.33 105.92 10.33 105.92 6.15"/>
      <path class="st0" d="M95.27,22.65v-5h-2.07v5c0,1,.81,1.82,1.82,1.82h10.91v-1.66h-10.51c-.09,0-.16-.07-.16-.15Z"/>
      <path class="st0" d="M96.68,8.37v-1.8h-2.06v1.8c0,5.33-5.11,6.43-5.46,6.5l1.39,1.39c1.23-.38,3.87-1.45,5.1-3.78,1.23,2.32,3.85,3.39,5.09,3.77l1.39-1.39c-.43-.09-5.45-1.21-5.45-6.5Z"/>
    </g>
    <g>
      <polygon class="st0" points="171.76 14.07 169.72 14.07 169.72 21.28 167.23 21.28 167.23 14.07 165.19 14.07 165.19 21.28 160.85 21.28 160.85 22.93 178.11 22.93 178.11 21.28 171.76 21.28 171.76 14.07"/>
      <path class="st0" d="M174.27,14.33c0,2.93-.73,4.63-.73,4.63h2.07s.71-1.7.71-4.63v-7.32h0s-13.65,0-13.65,0v1.65h11.6v5.67Z"/>
    </g>
    <g>
      <polygon class="st0" points="153.17 10.33 153.17 6.16 151.1 6.16 151.1 17.1 153.17 17.1 153.17 12 155.92 12 155.92 10.33 153.17 10.33"/>
      <polygon class="st0" points="153.17 17.92 140.09 17.92 140.09 19.59 151.1 19.59 151.1 24.72 153.17 24.72 153.17 17.92 153.17 17.92 153.17 17.92"/>
      <path class="st0" d="M147.94,12.11c0-.98-.37-1.88-.99-2.6h2.55v-1.68h-5.23v-2.08h-2.07v2.08h-5.23v1.68h2.55c-.62.72-1,1.62-1,2.6,0,2.35,2.11,4.25,4.71,4.25s4.71-1.9,4.71-4.25ZM140.6,12.1c0-1.43,1.17-2.58,2.63-2.58s2.63,1.16,2.63,2.58-1.18,2.58-2.63,2.58-2.63-1.16-2.63-2.58Z"/>
    </g>
  </g>
</svg>