<?xml version="1.0" encoding="UTF-8"?>
<svg id="_레이어_1" data-name="레이어_1" xmlns="http://www.w3.org/2000/svg" width="200" height="40" version="1.1" viewBox="0 0 200 40">
  <!-- Generator: Adobe Illustrator 29.6.1, SVG Export Plug-In . SVG Version: 2.1.1 Build 9)  -->
  <g>
    <circle cx="55.89" cy="15.2" r="1.49" fill="#fff"/>
    <circle cx="57.88" cy="9.73" r="2.99" fill="#fff"/>
    <path d="M55.34,18.73c-.12-.15-.29-.29-.45-.4-1.89-1.21-4.01-.66-5.07,1.15-.34.53-.45,1.19-.44,1.89.02.85.04,1.68.04,2.53,0,.79-.19,1.47-.54,2.05-.31.41-.7.75-1.2,1.04-.58.34-1.16.65-1.76.98l-3.57-20.52c-.15-.91-.95-1.57-1.88-1.57h-5.87c-1.41,0-2.6,1.01-2.85,2.4l-3.74,21.45-4.63-23.01-4.77,7.16,1.77,8.2c-1.47-2.47-4.32-3.62-7.41-4.37-4.7-1.14-5.79-2.03-5.79-3.71,0-1.38,1.19-2.18,3.26-2.18h5.59c.47,0,.91-.24,1.18-.63l3.54-5.31h-10.31c-5.77-.01-9.48,3.35-9.48,8.3,0,3.76,1.93,6.68,6.68,7.97,4.95,1.34,7.57,1.54,7.57,4.05,0,1.78-1.34,2.63-3.71,2.63H1.98l-1.98,5.93h12.02c5.57,0,9.13-3.41,9.4-8.07l1.71,7.95c.01.07.08.12.14.12h6.22c2.05,0,3.8-1.48,4.15-3.51l3.51-20.54,3.55,20.78c.32,1.88,1.96,3.25,3.86,3.25h1.87v-.03c1.4.2,2.71-.45,3.47-1.76.34-.53.45-1.19.44-1.89-.02-.85-.04-1.68-.04-2.53,0-.79.19-1.47.54-2.05.31-.41.7-.75,1.2-1.04.9-.53,1.85-.98,2.73-1.55,1.66-1.07,2-3.46.58-5.19h0Z" fill="#fff"/>
  </g>
  <g>
    <path d="M71.69,31.99v-4.65h2.21v4.65h6.09v1.93h-14.4v-1.93h6.1ZM74.34,20.34l5.2,8.69h-2.44l-4.3-7.33-4.3,7.33h-2.44l5.2-8.69h3.09-.01Z" fill="#fff"/>
    <path d="M94.92,31.99v1.93h-14.4v-1.93s14.4,0,14.4,0ZM83.24,26.55l.29-4.26h-2.02v-1.87h12.42v1.87h-8.2l-.29,4.26h-2.21.01ZM81.55,28.94v-1.87h8.14l.31-4.26h2.21l-.31,4.26h2v1.87h-12.35Z" fill="#fff"/>
    <path d="M109.86,31.99v1.93h-14.4v-1.93s14.4,0,14.4,0ZM98.7,24.08h9.88v1.78h-9.88v1.87h10.13v1.87h-12.27v-9.23h12.19v1.87h-10.04s0,1.85,0,1.85Z" fill="#fff"/>
    <path d="M115.19,29.72l-.4,4.82h-2.07l.4-4.82h-2.8v-1.87h7.89v1.87h-3.02ZM114.34,26.97c-2.15,0-3.59-1.43-3.59-3.48s1.44-3.48,3.59-3.48,3.59,1.43,3.59,3.48-1.44,3.48-3.59,3.48ZM114.34,21.8c-1.02,0-1.53.75-1.53,1.68s.51,1.68,1.53,1.68,1.53-.75,1.53-1.68-.51-1.68-1.53-1.68ZM116.51,30.84h2.37v-10.88h2.07v14.58h-2.07v-1.87h-2.37s0-1.84,0-1.84ZM122.04,19.89h2.14v14.81h-2.14v-14.81Z" fill="#fff"/>
    <path d="M134.21,30.01c0,2.58-1.66,4.23-4.18,4.23s-4.18-1.65-4.18-4.23v-5.68c0-2.58,1.66-4.23,4.18-4.23s4.18,1.65,4.18,4.23v5.68ZM128,30.01c0,1.52.76,2.36,2.03,2.36s2.03-.85,2.03-2.36v-5.68c0-1.51-.77-2.36-2.03-2.36s-2.03.85-2.03,2.36v5.68ZM134.89,25.91h1.93v-6.02h2.21v14.81h-2.21v-6.89h-1.93v-1.9Z" fill="#fff"/>
    <path d="M144.07,29.6h2.29v-1.32h-6.09v-1.84h14.4v1.84h-6.09v1.32h2.29c1.74,0,3.03,1.03,3.03,2.63s-1.31,2.63-3.03,2.63h-6.79c-1.74,0-3.03-1.03-3.03-2.63s1.31-2.63,3.03-2.63h0ZM153.55,21.93h-3.31l3.87,3.65h-2.78l-3.87-3.74-3.87,3.74h-2.78l3.87-3.65h-3.31v-1.74h12.19v1.74h-.01ZM144.16,33.09h6.58c.58,0,.97-.32.97-.87s-.4-.87-.97-.87h-6.58c-.58,0-.97.32-.97.87s.38.87.97.87Z" fill="#fff"/>
    <path d="M161.8,20.27l3.31,7.42h-2.29l-2.53-5.87-2.53,5.87h-2.29l3.31-7.42h3.02-.01ZM156.79,29.17h12.01v5.62h-12.01v-5.62ZM158.97,32.99h7.67v-2.02h-7.67v2.02ZM166.6,19.89h2.21v8.58h-2.21v-8.58Z" fill="#fff"/>
    <path d="M170.57,20.52h6.49v1.87h-4.4v9.59h5.01v1.87h-7.11v-13.32h0ZM180.43,25.98h1.34v-6.09h2.14v14.81h-2.14v-6.86h-1.34v6.68h-2.07v-14.58h2.07v6.02h0Z" fill="#fff"/>
    <path d="M185.23,20.82h3.46v-1.41h2.21v1.41h3.46v1.8h-9.13v-1.8h0ZM188.53,23.3h2.55c1.74,0,3.03,1.1,3.03,2.78s-1.31,2.78-3.03,2.78h-2.55c-1.74,0-3.03-1.1-3.03-2.78s1.31-2.78,3.03-2.78ZM198.15,34.87h-2.21v-3.18h-9.98v-1.87h12.19v5.04ZM188.63,27.13h2.34c.56,0,1-.43,1-1.05s-.44-1.05-1-1.05h-2.34c-.56,0-1,.43-1,1.05s.44,1.05,1,1.05ZM200,25.42h-1.85v3.74h-2.21v-9.26h2.21v3.64h1.85v1.9h0Z" fill="#fff"/>
  </g>
  <g>
    <rect x="101.27" y="11.18" width="3.19" height="1.04" fill="#fff"/>
    <g>
      <path d="M72.95,7c-.34-.3-.75-.49-1.23-.6-.34-.08-.84-.12-1.48-.12h-2.89v8.48h3.02c.51,0,.96-.05,1.34-.14.4-.1.73-.24,1-.43s.53-.44.76-.77.42-.74.57-1.23.22-1.07.22-1.71c0-.76-.11-1.43-.33-2.02-.22-.58-.55-1.07-.99-1.45h.01ZM72.89,12.09c-.14.45-.35.81-.62,1.08-.19.19-.44.34-.75.44-.32.1-.75.15-1.3.15h-1.78v-6.49h1.76c.66,0,1.13.05,1.43.18.41.16.77.48,1.04.96.29.48.43,1.16.43,2.04,0,.64-.08,1.19-.22,1.64h0Z" fill="#fff"/>
      <path d="M80.98,6.68c-.63-.37-1.32-.56-2.1-.56-1.19,0-2.15.4-2.9,1.19-.76.79-1.13,1.9-1.13,3.31,0,.75.16,1.45.48,2.11.32.67.79,1.2,1.42,1.58.63.38,1.33.58,2.12.58.74,0,1.42-.18,2.04-.53.64-.35,1.12-.87,1.47-1.54.34-.68.52-1.45.52-2.31s-.16-1.6-.49-2.27c-.33-.67-.8-1.19-1.43-1.56ZM80.93,13.05c-.54.59-1.23.89-2.07.89s-1.51-.3-2.05-.88-.82-1.4-.82-2.41c0-1.27.29-2.19.86-2.73.57-.55,1.24-.81,2.03-.81.56,0,1.05.14,1.51.43s.78.68,1.02,1.2c.23.52.35,1.12.35,1.8,0,1.09-.27,1.93-.81,2.53v-.02Z" fill="#fff"/>
      <polygon points="89.3 12.94 84.86 6.27 83.73 6.27 83.73 14.76 84.79 14.76 84.79 8.09 89.22 14.76 90.36 14.76 90.36 6.27 89.3 6.27 89.3 12.94" fill="#fff"/>
      <path d="M95.55,11.41h2.43v1.59c-.23.21-.58.42-1.03.6-.46.19-.92.29-1.4.29-.55,0-1.07-.12-1.56-.37-.49-.25-.87-.63-1.12-1.13-.25-.52-.38-1.14-.38-1.9,0-.62.11-1.19.32-1.71.12-.31.3-.58.53-.85.22-.25.52-.46.89-.62.36-.15.8-.23,1.31-.23.43,0,.81.08,1.15.22.34.14.6.35.79.59s.34.58.46,1.02l1.02-.27c-.14-.57-.35-1.03-.63-1.38-.27-.35-.66-.63-1.15-.82-.48-.2-1.03-.3-1.64-.3-.84,0-1.57.16-2.21.52-.64.34-1.13.88-1.47,1.59s-.52,1.48-.52,2.31.18,1.59.52,2.26c.34.68.85,1.19,1.53,1.55.67.35,1.42.54,2.24.54.62,0,1.2-.11,1.78-.33.58-.22,1.14-.55,1.68-.99v-3.14h-3.54v1-.03Z" fill="#fff"/>
      <path d="M108.52,6.27l-3.2,8.48h1.18l.9-2.56h3.54l.97,2.56h1.26l-3.42-8.48h-1.23ZM107.7,11.29l.93-2.51c.2-.54.35-1.08.46-1.62.14.46.34,1.05.6,1.77l.89,2.36h-2.89Z" fill="#fff"/>
      <path d="M124.35,11.13c0,1.05-.18,1.78-.52,2.14-.35.37-.92.56-1.75.56-.47,0-.88-.09-1.21-.29-.33-.19-.56-.46-.7-.8-.14-.35-.21-.89-.21-1.63v-4.87h-1.1v4.89c0,.9.1,1.6.32,2.12.21.52.57.91,1.07,1.19.51.27,1.14.41,1.93.41s1.46-.15,1.96-.47.85-.73,1.03-1.22c.2-.51.29-1.18.29-2.03v-4.89h-1.11v4.89Z" fill="#fff"/>
      <polygon points="132.26 12.94 127.82 6.27 126.69 6.27 126.69 14.76 127.76 14.76 127.76 8.09 132.2 14.76 133.33 14.76 133.33 6.27 132.26 6.27 132.26 12.94" fill="#fff"/>
      <rect x="135.32" y="6.27" width="1.11" height="8.48" fill="#fff"/>
      <path d="M141.78,12.44c-.18.46-.33.93-.45,1.4-.12-.43-.26-.89-.44-1.4l-2.18-6.18h-1.21l3.23,8.48h1.15l3.29-8.48h-1.13l-2.27,6.18h.01Z" fill="#fff"/>
      <polygon points="146.74 10.87 151.37 10.87 151.37 9.87 146.74 9.87 146.74 7.27 151.68 7.27 151.68 6.27 145.63 6.27 145.63 14.76 151.88 14.76 151.88 13.76 146.74 13.76 146.74 10.87" fill="#fff"/>
      <path d="M157.86,11.31c-.15-.14-.37-.27-.67-.42.8-.11,1.4-.37,1.78-.79.38-.41.57-.92.57-1.53,0-.46-.12-.89-.35-1.27-.23-.38-.54-.66-.92-.8-.4-.15-.96-.23-1.7-.23h-3.7v8.48h1.11v-3.78h1.29c.29,0,.48.01.62.04.18.04.34.12.51.23.16.11.35.3.56.57.21.26.47.66.8,1.16l1.1,1.77h1.4l-1.45-2.31c-.29-.45-.59-.82-.91-1.13h-.01ZM156.35,9.98h-2.38v-2.78h2.65c.62,0,1.07.13,1.35.38.3.25.44.58.44.98,0,.27-.08.53-.22.76-.14.23-.36.4-.65.51-.29.1-.68.15-1.18.15h-.01Z" fill="#fff"/>
      <path d="M165.56,10.29c-.33-.15-.95-.33-1.86-.54-.9-.21-1.46-.41-1.67-.6-.22-.2-.33-.45-.33-.76,0-.35.15-.65.46-.9.3-.25.79-.37,1.46-.37s1.13.13,1.46.41.53.68.58,1.22l1.07-.09c-.02-.49-.16-.95-.42-1.34-.25-.4-.62-.69-1.1-.9-.47-.2-1.02-.3-1.64-.3-.56,0-1.08.09-1.54.29-.46.19-.81.47-1.05.85-.24.37-.36.77-.36,1.2,0,.4.1.75.3,1.07.2.31.49.57.89.79.31.16.86.34,1.63.53.77.19,1.26.33,1.49.42.35.13.6.3.76.49.14.2.22.43.22.69s-.08.51-.24.73c-.15.22-.4.4-.73.53-.32.12-.69.19-1.11.19-.47,0-.9-.09-1.29-.25-.38-.16-.66-.4-.85-.66-.18-.27-.3-.63-.34-1.05l-1.04.09c.02.57.18,1.08.46,1.53.3.45.69.79,1.2,1.02.51.22,1.14.34,1.89.34.6,0,1.14-.11,1.62-.33.47-.22.85-.53,1.1-.92.25-.41.38-.82.38-1.27s-.12-.86-.35-1.2c-.23-.35-.58-.64-1.08-.87h.02Z" fill="#fff"/>
      <rect x="168.12" y="6.27" width="1.1" height="8.48" fill="#fff"/>
      <path d="M182.69,6.27l-1.62,2.51c-.35.56-.66,1.05-.92,1.49-.26-.47-.56-.95-.87-1.42l-1.65-2.58h-7.65v1h2.76v7.49h1.11v-7.49h2.76v-.54l2.92,4.43v3.59h1.1v-3.59l3.34-4.89h-1.29,0Z" fill="#fff"/>
    </g>
  </g>
</svg>